%TF.GenerationSoftware,KiCad,Pcbnew,10.0.4*%
%TF.CreationDate,2026-08-12T10:30:17+09:00*%
%TF.ProjectId,jig,6a69672e-6b69-4636-9164-5f7063625858,rev?*%
%TF.SameCoordinates,Original*%
%TF.FileFunction,Soldermask,Top*%
%TF.FilePolarity,Negative*%
%FSLAX46Y46*%
G04 Gerber Fmt 4.6, Leading zero omitted, Abs format (unit mm)*
G04 Created by KiCad (PCBNEW 10.0.4) date 2026-08-12 10:30:17*
%MOMM*%
%LPD*%
G01*
G04 APERTURE LIST*
G04 Aperture macros list*
%AMRoundRect*
0 Rectangle with rounded corners*
0 $1 Rounding radius*
0 $2 $3 $4 $5 $6 $7 $8 $9 X,Y pos of 4 corners*
0 Add a 4 corners polygon primitive as box body*
4,1,4,$2,$3,$4,$5,$6,$7,$8,$9,$2,$3,0*
0 Add four circle primitives for the rounded corners*
1,1,$1+$1,$2,$3*
1,1,$1+$1,$4,$5*
1,1,$1+$1,$6,$7*
1,1,$1+$1,$8,$9*
0 Add four rect primitives between the rounded corners*
20,1,$1+$1,$2,$3,$4,$5,0*
20,1,$1+$1,$4,$5,$6,$7,0*
20,1,$1+$1,$6,$7,$8,$9,0*
20,1,$1+$1,$8,$9,$2,$3,0*%
G04 Aperture macros list end*
%ADD10RoundRect,0.225000X-0.225000X-0.250000X0.225000X-0.250000X0.225000X0.250000X-0.225000X0.250000X0*%
%ADD11RoundRect,0.087500X-0.537500X-0.087500X0.537500X-0.087500X0.537500X0.087500X-0.537500X0.087500X0*%
%ADD12RoundRect,0.218750X-0.218750X-0.256250X0.218750X-0.256250X0.218750X0.256250X-0.218750X0.256250X0*%
%ADD13C,4.000000*%
%ADD14RoundRect,0.218750X0.256250X-0.218750X0.256250X0.218750X-0.256250X0.218750X-0.256250X-0.218750X0*%
%ADD15RoundRect,0.250000X-0.325000X-0.650000X0.325000X-0.650000X0.325000X0.650000X-0.325000X0.650000X0*%
%ADD16RoundRect,0.150000X0.150000X-0.587500X0.150000X0.587500X-0.150000X0.587500X-0.150000X-0.587500X0*%
%ADD17RoundRect,0.200000X-0.200000X-0.275000X0.200000X-0.275000X0.200000X0.275000X-0.200000X0.275000X0*%
%ADD18C,1.524000*%
%ADD19RoundRect,0.200000X0.200000X0.275000X-0.200000X0.275000X-0.200000X-0.275000X0.200000X-0.275000X0*%
%ADD20RoundRect,0.150000X0.512500X0.150000X-0.512500X0.150000X-0.512500X-0.150000X0.512500X-0.150000X0*%
%ADD21RoundRect,0.250000X0.325000X0.650000X-0.325000X0.650000X-0.325000X-0.650000X0.325000X-0.650000X0*%
%ADD22O,3.200000X1.900000*%
%ADD23RoundRect,0.250000X0.375000X0.625000X-0.375000X0.625000X-0.375000X-0.625000X0.375000X-0.625000X0*%
%ADD24RoundRect,0.100000X0.100000X-0.637500X0.100000X0.637500X-0.100000X0.637500X-0.100000X-0.637500X0*%
%ADD25RoundRect,0.137500X-0.600000X-0.137500X0.600000X-0.137500X0.600000X0.137500X-0.600000X0.137500X0*%
%ADD26RoundRect,0.137500X-0.137500X-0.600000X0.137500X-0.600000X0.137500X0.600000X-0.137500X0.600000X0*%
%ADD27R,1.200000X0.800000*%
%ADD28C,1.700000*%
%ADD29R,1.700000X1.700000*%
%ADD30RoundRect,0.225000X0.225000X0.250000X-0.225000X0.250000X-0.225000X-0.250000X0.225000X-0.250000X0*%
%ADD31RoundRect,0.150000X-0.587500X-0.150000X0.587500X-0.150000X0.587500X0.150000X-0.587500X0.150000X0*%
%ADD32RoundRect,0.200000X0.275000X-0.200000X0.275000X0.200000X-0.275000X0.200000X-0.275000X-0.200000X0*%
%ADD33RoundRect,0.250000X-0.850000X-0.350000X0.850000X-0.350000X0.850000X0.350000X-0.850000X0.350000X0*%
%ADD34RoundRect,0.249997X-2.950003X-2.650003X2.950003X-2.650003X2.950003X2.650003X-2.950003X2.650003X0*%
%ADD35RoundRect,0.150000X-0.150000X0.587500X-0.150000X-0.587500X0.150000X-0.587500X0.150000X0.587500X0*%
%ADD36O,1.500000X2.000000*%
%ADD37C,2.000000*%
%ADD38R,2.000000X3.000000*%
%ADD39RoundRect,0.200000X-0.275000X0.200000X-0.275000X-0.200000X0.275000X-0.200000X0.275000X0.200000X0*%
%ADD40R,2.000000X2.000000*%
%ADD41R,2.000000X4.200000*%
%ADD42RoundRect,0.150000X0.587500X0.150000X-0.587500X0.150000X-0.587500X-0.150000X0.587500X-0.150000X0*%
%ADD43RoundRect,0.225000X0.250000X-0.225000X0.250000X0.225000X-0.250000X0.225000X-0.250000X-0.225000X0*%
%ADD44RoundRect,0.250000X-0.275000X-0.700000X0.275000X-0.700000X0.275000X0.700000X-0.275000X0.700000X0*%
%ADD45RoundRect,0.225000X-0.250000X0.225000X-0.250000X-0.225000X0.250000X-0.225000X0.250000X0.225000X0*%
%ADD46RoundRect,0.375000X-0.625000X-0.375000X0.625000X-0.375000X0.625000X0.375000X-0.625000X0.375000X0*%
%ADD47RoundRect,0.500000X-0.500000X-1.400000X0.500000X-1.400000X0.500000X1.400000X-0.500000X1.400000X0*%
%ADD48R,1.000000X1.250000*%
%ADD49R,1.500000X1.500000*%
%ADD50C,1.500000*%
%TA.AperFunction,Profile*%
%ADD51C,0.050000*%
%TD*%
G04 APERTURE END LIST*
D10*
%TO.C,C32*%
X121225000Y53500000D03*
X122775000Y53500000D03*
%TD*%
D11*
%TO.C,U21*%
X40600000Y53750000D03*
X40600000Y53250000D03*
X40600000Y52750000D03*
X40600000Y52250000D03*
X43400000Y52250000D03*
X43400000Y52750000D03*
X43400000Y53250000D03*
X43400000Y53750000D03*
%TD*%
D12*
%TO.C,D6*%
X17212500Y38000000D03*
X18787500Y38000000D03*
%TD*%
D13*
%TO.C,H3*%
X124000000Y5000000D03*
%TD*%
D12*
%TO.C,D14*%
X37212500Y38000000D03*
X38787500Y38000000D03*
%TD*%
D14*
%TO.C,D21*%
X75500000Y40712500D03*
X75500000Y42287500D03*
%TD*%
D11*
%TO.C,U31*%
X70600000Y53750000D03*
X70600000Y53250000D03*
X70600000Y52750000D03*
X70600000Y52250000D03*
X73400000Y52250000D03*
X73400000Y52750000D03*
X73400000Y53250000D03*
X73400000Y53750000D03*
%TD*%
D15*
%TO.C,C2*%
X22525000Y27000000D03*
X25475000Y27000000D03*
%TD*%
D16*
%TO.C,Q1*%
X83550000Y41062500D03*
X85450000Y41062500D03*
X84500000Y42937500D03*
%TD*%
D17*
%TO.C,R36*%
X106175000Y50000000D03*
X107825000Y50000000D03*
%TD*%
D18*
%TO.C,Con3*%
X74952500Y20460000D03*
X74952500Y23000000D03*
X74952500Y25540000D03*
X72412500Y20460000D03*
X72412500Y23000000D03*
X72412500Y25540000D03*
%TD*%
D19*
%TO.C,R35*%
X107825000Y48000000D03*
X106175000Y48000000D03*
%TD*%
D20*
%TO.C,Q11*%
X103137500Y48050000D03*
X103137500Y49950000D03*
X100862500Y49000000D03*
%TD*%
D21*
%TO.C,C4*%
X25475000Y6000000D03*
X22525000Y6000000D03*
%TD*%
D11*
%TO.C,U11*%
X10600000Y53750000D03*
X10600000Y53250000D03*
X10600000Y52750000D03*
X10600000Y52250000D03*
X13400000Y52250000D03*
X13400000Y52750000D03*
X13400000Y53250000D03*
X13400000Y53750000D03*
%TD*%
%TO.C,U30*%
X70600000Y57750000D03*
X70600000Y57250000D03*
X70600000Y56750000D03*
X70600000Y56250000D03*
X73400000Y56250000D03*
X73400000Y56750000D03*
X73400000Y57250000D03*
X73400000Y57750000D03*
%TD*%
D10*
%TO.C,C26*%
X91225000Y53500000D03*
X92775000Y53500000D03*
%TD*%
D22*
%TO.C,SW2*%
X58250000Y6500000D03*
X45750000Y6500000D03*
X58250000Y11500000D03*
X45750000Y11500000D03*
%TD*%
D23*
%TO.C,D1*%
X18400000Y6000000D03*
X15600000Y6000000D03*
%TD*%
D10*
%TO.C,C18*%
X61225000Y61500000D03*
X62775000Y61500000D03*
%TD*%
D24*
%TO.C,U6*%
X71925000Y31637500D03*
X72575000Y31637500D03*
X73225000Y31637500D03*
X73875000Y31637500D03*
X74525000Y31637500D03*
X75175000Y31637500D03*
X75825000Y31637500D03*
X76475000Y31637500D03*
X77125000Y31637500D03*
X77775000Y31637500D03*
X78425000Y31637500D03*
X79075000Y31637500D03*
X79075000Y37362500D03*
X78425000Y37362500D03*
X77775000Y37362500D03*
X77125000Y37362500D03*
X76475000Y37362500D03*
X75825000Y37362500D03*
X75175000Y37362500D03*
X74525000Y37362500D03*
X73875000Y37362500D03*
X73225000Y37362500D03*
X72575000Y37362500D03*
X71925000Y37362500D03*
%TD*%
D17*
%TO.C,R20*%
X46175000Y50000000D03*
X47825000Y50000000D03*
%TD*%
D19*
%TO.C,R15*%
X32825000Y48000000D03*
X31175000Y48000000D03*
%TD*%
D14*
%TO.C,D19*%
X79500000Y42287500D03*
X79500000Y40712500D03*
%TD*%
D10*
%TO.C,C22*%
X76225000Y57500000D03*
X77775000Y57500000D03*
%TD*%
D12*
%TO.C,D4*%
X12212500Y38000000D03*
X13787500Y38000000D03*
%TD*%
D21*
%TO.C,C6*%
X25475000Y18500000D03*
X22525000Y18500000D03*
%TD*%
D17*
%TO.C,R13*%
X21825000Y67500000D03*
X20175000Y67500000D03*
%TD*%
D12*
%TO.C,D10*%
X27212500Y38000000D03*
X28787500Y38000000D03*
%TD*%
D11*
%TO.C,U16*%
X25600000Y53750000D03*
X25600000Y53250000D03*
X25600000Y52750000D03*
X25600000Y52250000D03*
X28400000Y52250000D03*
X28400000Y52750000D03*
X28400000Y53250000D03*
X28400000Y53750000D03*
%TD*%
D17*
%TO.C,R24*%
X61175000Y50000000D03*
X62825000Y50000000D03*
%TD*%
D20*
%TO.C,Q10*%
X88137500Y48050000D03*
X88137500Y49950000D03*
X85862500Y49000000D03*
%TD*%
D11*
%TO.C,U34*%
X85600000Y61750000D03*
X85600000Y61250000D03*
X85600000Y60750000D03*
X85600000Y60250000D03*
X88400000Y60250000D03*
X88400000Y60750000D03*
X88400000Y61250000D03*
X88400000Y61750000D03*
%TD*%
%TO.C,U36*%
X85600000Y53750000D03*
X85600000Y53250000D03*
X85600000Y52750000D03*
X85600000Y52250000D03*
X88400000Y52250000D03*
X88400000Y52750000D03*
X88400000Y53250000D03*
X88400000Y53750000D03*
%TD*%
D19*
%TO.C,R11*%
X17825000Y48000000D03*
X16175000Y48000000D03*
%TD*%
D20*
%TO.C,Q9*%
X73137500Y48050000D03*
X73137500Y49950000D03*
X70862500Y49000000D03*
%TD*%
D25*
%TO.C,U1*%
X57337500Y26300000D03*
X57337500Y25500000D03*
X57337500Y24700000D03*
X57337500Y23900000D03*
X57337500Y23100000D03*
X57337500Y22300000D03*
X57337500Y21500000D03*
X57337500Y20700000D03*
D26*
X58700000Y19337500D03*
X59500000Y19337500D03*
X60300000Y19337500D03*
X61100000Y19337500D03*
X61900000Y19337500D03*
X62700000Y19337500D03*
X63500000Y19337500D03*
X64300000Y19337500D03*
D25*
X65662500Y20700000D03*
X65662500Y21500000D03*
X65662500Y22300000D03*
X65662500Y23100000D03*
X65662500Y23900000D03*
X65662500Y24700000D03*
X65662500Y25500000D03*
X65662500Y26300000D03*
D26*
X64300000Y27662500D03*
X63500000Y27662500D03*
X62700000Y27662500D03*
X61900000Y27662500D03*
X61100000Y27662500D03*
X60300000Y27662500D03*
X59500000Y27662500D03*
X58700000Y27662500D03*
%TD*%
D27*
%TO.C,U42*%
X120000000Y67770000D03*
X120000000Y65230000D03*
X114000000Y65230000D03*
X114000000Y67770000D03*
%TD*%
D10*
%TO.C,C27*%
X106225000Y61500000D03*
X107775000Y61500000D03*
%TD*%
D28*
%TO.C,JP1*%
X4960000Y32540000D03*
X7500000Y32540000D03*
X4960000Y30000000D03*
X7500000Y30000000D03*
X4960000Y27460000D03*
D29*
X7500000Y27460000D03*
%TD*%
D12*
%TO.C,D2*%
X49550000Y21500000D03*
X51125000Y21500000D03*
%TD*%
D11*
%TO.C,U29*%
X70600000Y61750000D03*
X70600000Y61250000D03*
X70600000Y60750000D03*
X70600000Y60250000D03*
X73400000Y60250000D03*
X73400000Y60750000D03*
X73400000Y61250000D03*
X73400000Y61750000D03*
%TD*%
D30*
%TO.C,C1*%
X54337500Y23700000D03*
X52787500Y23700000D03*
%TD*%
D29*
%TO.C,Con12*%
X27000000Y93890000D03*
D28*
X27000000Y91350000D03*
X27000000Y88810000D03*
X27000000Y86270000D03*
X27000000Y83730000D03*
X27000000Y81190000D03*
X27000000Y78650000D03*
X27000000Y76110000D03*
%TD*%
D20*
%TO.C,Q12*%
X118137500Y48050000D03*
X118137500Y49950000D03*
X115862500Y49000000D03*
%TD*%
D10*
%TO.C,C17*%
X46225000Y53500000D03*
X47775000Y53500000D03*
%TD*%
D11*
%TO.C,U15*%
X25600000Y57750000D03*
X25600000Y57250000D03*
X25600000Y56750000D03*
X25600000Y56250000D03*
X28400000Y56250000D03*
X28400000Y56750000D03*
X28400000Y57250000D03*
X28400000Y57750000D03*
%TD*%
%TO.C,U24*%
X55600000Y61750000D03*
X55600000Y61250000D03*
X55600000Y60750000D03*
X55600000Y60250000D03*
X58400000Y60250000D03*
X58400000Y60750000D03*
X58400000Y61250000D03*
X58400000Y61750000D03*
%TD*%
D27*
%TO.C,U2*%
X102500000Y12770000D03*
X102500000Y10230000D03*
X108500000Y10230000D03*
X108500000Y12770000D03*
%TD*%
D31*
%TO.C,Q4*%
X94062500Y20450000D03*
X94062500Y18550000D03*
X95937500Y19500000D03*
%TD*%
D10*
%TO.C,C31*%
X121225000Y57500000D03*
X122775000Y57500000D03*
%TD*%
%TO.C,C10*%
X16225000Y57500000D03*
X17775000Y57500000D03*
%TD*%
D28*
%TO.C,Con1*%
X124000000Y22610000D03*
X124000000Y25150000D03*
X124000000Y27690000D03*
X124000000Y30230000D03*
X124000000Y32770000D03*
X124000000Y35310000D03*
X124000000Y37850000D03*
D29*
X124000000Y40390000D03*
%TD*%
D32*
%TO.C,R4*%
X56500000Y37675000D03*
X56500000Y39325000D03*
%TD*%
D10*
%TO.C,C30*%
X121225000Y61500000D03*
X122775000Y61500000D03*
%TD*%
D29*
%TO.C,Con11*%
X12000000Y93890000D03*
D28*
X12000000Y91350000D03*
X12000000Y88810000D03*
X12000000Y86270000D03*
X12000000Y83730000D03*
X12000000Y81190000D03*
X12000000Y78650000D03*
X12000000Y76110000D03*
%TD*%
D11*
%TO.C,U46*%
X115600000Y53750000D03*
X115600000Y53250000D03*
X115600000Y52750000D03*
X115600000Y52250000D03*
X118400000Y52250000D03*
X118400000Y52750000D03*
X118400000Y53250000D03*
X118400000Y53750000D03*
%TD*%
D17*
%TO.C,R25*%
X66825000Y67500000D03*
X65175000Y67500000D03*
%TD*%
D11*
%TO.C,U9*%
X10600000Y61750000D03*
X10600000Y61250000D03*
X10600000Y60750000D03*
X10600000Y60250000D03*
X13400000Y60250000D03*
X13400000Y60750000D03*
X13400000Y61250000D03*
X13400000Y61750000D03*
%TD*%
D33*
%TO.C,U3*%
X29700000Y27280000D03*
D34*
X36000000Y25000000D03*
D33*
X29700000Y22720000D03*
%TD*%
D17*
%TO.C,R28*%
X76175000Y50000000D03*
X77825000Y50000000D03*
%TD*%
D11*
%TO.C,U45*%
X115600000Y57750000D03*
X115600000Y57250000D03*
X115600000Y56750000D03*
X115600000Y56250000D03*
X118400000Y56250000D03*
X118400000Y56750000D03*
X118400000Y57250000D03*
X118400000Y57750000D03*
%TD*%
D10*
%TO.C,C25*%
X91225000Y57500000D03*
X92775000Y57500000D03*
%TD*%
D35*
%TO.C,Q3*%
X54450000Y39437500D03*
X52550000Y39437500D03*
X53500000Y37562500D03*
%TD*%
D27*
%TO.C,U32*%
X90000000Y67770000D03*
X90000000Y65230000D03*
X84000000Y65230000D03*
X84000000Y67770000D03*
%TD*%
D10*
%TO.C,C28*%
X106225000Y57500000D03*
X107775000Y57500000D03*
%TD*%
D36*
%TO.C,Con2*%
X6100000Y17000000D03*
D37*
X10500000Y17000000D03*
D38*
X6000000Y22500000D03*
X12000000Y22500000D03*
X12000000Y11500000D03*
X6000000Y11500000D03*
%TD*%
D17*
%TO.C,R6*%
X90175000Y20500000D03*
X91825000Y20500000D03*
%TD*%
D10*
%TO.C,C23*%
X76225000Y53500000D03*
X77775000Y53500000D03*
%TD*%
D17*
%TO.C,R29*%
X81825000Y67500000D03*
X80175000Y67500000D03*
%TD*%
D21*
%TO.C,C3*%
X25475000Y14280000D03*
X22525000Y14280000D03*
%TD*%
D12*
%TO.C,D8*%
X22212500Y38000000D03*
X23787500Y38000000D03*
%TD*%
D11*
%TO.C,U20*%
X40600000Y57750000D03*
X40600000Y57250000D03*
X40600000Y56750000D03*
X40600000Y56250000D03*
X43400000Y56250000D03*
X43400000Y56750000D03*
X43400000Y57250000D03*
X43400000Y57750000D03*
%TD*%
D20*
%TO.C,Q7*%
X43137500Y48050000D03*
X43137500Y49950000D03*
X40862500Y49000000D03*
%TD*%
D11*
%TO.C,U41*%
X100600000Y53750000D03*
X100600000Y53250000D03*
X100600000Y52750000D03*
X100600000Y52250000D03*
X103400000Y52250000D03*
X103400000Y52750000D03*
X103400000Y53250000D03*
X103400000Y53750000D03*
%TD*%
D17*
%TO.C,R12*%
X16175000Y50000000D03*
X17825000Y50000000D03*
%TD*%
D12*
%TO.C,D16*%
X42212500Y38000000D03*
X43787500Y38000000D03*
%TD*%
D20*
%TO.C,Q8*%
X58137500Y48050000D03*
X58137500Y49950000D03*
X55862500Y49000000D03*
%TD*%
D11*
%TO.C,U26*%
X55600000Y53750000D03*
X55600000Y53250000D03*
X55600000Y52750000D03*
X55600000Y52250000D03*
X58400000Y52250000D03*
X58400000Y52750000D03*
X58400000Y53250000D03*
X58400000Y53750000D03*
%TD*%
%TO.C,U39*%
X100600000Y61750000D03*
X100600000Y61250000D03*
X100600000Y60750000D03*
X100600000Y60250000D03*
X103400000Y60250000D03*
X103400000Y60750000D03*
X103400000Y61250000D03*
X103400000Y61750000D03*
%TD*%
D19*
%TO.C,R23*%
X62825000Y48000000D03*
X61175000Y48000000D03*
%TD*%
D39*
%TO.C,R1*%
X72000000Y42325000D03*
X72000000Y40675000D03*
%TD*%
D27*
%TO.C,U12*%
X30000000Y67770000D03*
X30000000Y65230000D03*
X24000000Y65230000D03*
X24000000Y67770000D03*
%TD*%
D40*
%TO.C,TP1*%
X63337500Y14700000D03*
%TD*%
D10*
%TO.C,C19*%
X61225000Y57500000D03*
X62775000Y57500000D03*
%TD*%
D17*
%TO.C,R33*%
X96825000Y67500000D03*
X95175000Y67500000D03*
%TD*%
%TO.C,R40*%
X121175000Y50000000D03*
X122825000Y50000000D03*
%TD*%
%TO.C,R32*%
X91175000Y50000000D03*
X92825000Y50000000D03*
%TD*%
D20*
%TO.C,Q5*%
X13137500Y48050000D03*
X13137500Y49950000D03*
X10862500Y49000000D03*
%TD*%
D19*
%TO.C,R39*%
X122825000Y48000000D03*
X121175000Y48000000D03*
%TD*%
D27*
%TO.C,U17*%
X45000000Y67770000D03*
X45000000Y65230000D03*
X39000000Y65230000D03*
X39000000Y67770000D03*
%TD*%
%TO.C,U22*%
X60000000Y67770000D03*
X60000000Y65230000D03*
X54000000Y65230000D03*
X54000000Y67770000D03*
%TD*%
D39*
%TO.C,R3*%
X90500000Y24325000D03*
X90500000Y22675000D03*
%TD*%
D41*
%TO.C,BZ1*%
X107500000Y20500000D03*
X99500000Y20500000D03*
%TD*%
D29*
%TO.C,Con17*%
X102000000Y93890000D03*
D28*
X102000000Y91350000D03*
X102000000Y88810000D03*
X102000000Y86270000D03*
X102000000Y83730000D03*
X102000000Y81190000D03*
X102000000Y78650000D03*
X102000000Y76110000D03*
%TD*%
D39*
%TO.C,R2*%
X81500000Y42325000D03*
X81500000Y40675000D03*
%TD*%
D12*
%TO.C,D18*%
X47212500Y38000000D03*
X48787500Y38000000D03*
%TD*%
D27*
%TO.C,U37*%
X105000000Y67770000D03*
X105000000Y65230000D03*
X99000000Y65230000D03*
X99000000Y67770000D03*
%TD*%
D11*
%TO.C,U44*%
X115600000Y61750000D03*
X115600000Y61250000D03*
X115600000Y60750000D03*
X115600000Y60250000D03*
X118400000Y60250000D03*
X118400000Y60750000D03*
X118400000Y61250000D03*
X118400000Y61750000D03*
%TD*%
D10*
%TO.C,C15*%
X46225000Y61500000D03*
X47775000Y61500000D03*
%TD*%
D17*
%TO.C,R9*%
X6825000Y67500000D03*
X5175000Y67500000D03*
%TD*%
D10*
%TO.C,C24*%
X91225000Y61500000D03*
X92775000Y61500000D03*
%TD*%
D27*
%TO.C,U27*%
X75000000Y67770000D03*
X75000000Y65230000D03*
X69000000Y65230000D03*
X69000000Y67770000D03*
%TD*%
D13*
%TO.C,H2*%
X124000000Y94000000D03*
%TD*%
D19*
%TO.C,R27*%
X77825000Y48000000D03*
X76175000Y48000000D03*
%TD*%
D11*
%TO.C,U19*%
X40600000Y61750000D03*
X40600000Y61250000D03*
X40600000Y60750000D03*
X40600000Y60250000D03*
X43400000Y60250000D03*
X43400000Y60750000D03*
X43400000Y61250000D03*
X43400000Y61750000D03*
%TD*%
D10*
%TO.C,C20*%
X61225000Y53500000D03*
X62775000Y53500000D03*
%TD*%
%TO.C,C14*%
X31225000Y53500000D03*
X32775000Y53500000D03*
%TD*%
D13*
%TO.C,H1*%
X5000000Y94000000D03*
%TD*%
D21*
%TO.C,C7*%
X25475000Y10500000D03*
X22525000Y10500000D03*
%TD*%
D11*
%TO.C,U40*%
X100600000Y57750000D03*
X100600000Y57250000D03*
X100600000Y56750000D03*
X100600000Y56250000D03*
X103400000Y56250000D03*
X103400000Y56750000D03*
X103400000Y57250000D03*
X103400000Y57750000D03*
%TD*%
D17*
%TO.C,R5*%
X52687500Y21500000D03*
X54337500Y21500000D03*
%TD*%
D11*
%TO.C,U10*%
X10600000Y57750000D03*
X10600000Y57250000D03*
X10600000Y56750000D03*
X10600000Y56250000D03*
X13400000Y56250000D03*
X13400000Y56750000D03*
X13400000Y57250000D03*
X13400000Y57750000D03*
%TD*%
D17*
%TO.C,R17*%
X36825000Y67500000D03*
X35175000Y67500000D03*
%TD*%
D13*
%TO.C,H4*%
X5000000Y5000000D03*
%TD*%
D10*
%TO.C,C9*%
X16225000Y61500000D03*
X17775000Y61500000D03*
%TD*%
%TO.C,C11*%
X16225000Y53500000D03*
X17775000Y53500000D03*
%TD*%
D17*
%TO.C,R21*%
X51825000Y67500000D03*
X50175000Y67500000D03*
%TD*%
D42*
%TO.C,Q2*%
X95937500Y22550000D03*
X95937500Y24450000D03*
X94062500Y23500000D03*
%TD*%
D22*
%TO.C,SW1*%
X87250000Y6500000D03*
X74750000Y6500000D03*
X87250000Y11500000D03*
X74750000Y11500000D03*
%TD*%
D43*
%TO.C,C33*%
X70500000Y40725000D03*
X70500000Y42275000D03*
%TD*%
D29*
%TO.C,Con18*%
X117000000Y93890000D03*
D28*
X117000000Y91350000D03*
X117000000Y88810000D03*
X117000000Y86270000D03*
X117000000Y83730000D03*
X117000000Y81190000D03*
X117000000Y78650000D03*
X117000000Y76110000D03*
%TD*%
D44*
%TO.C,FB1*%
X15425000Y27000000D03*
X18575000Y27000000D03*
%TD*%
D29*
%TO.C,Con16*%
X87000000Y93890000D03*
D28*
X87000000Y91350000D03*
X87000000Y88810000D03*
X87000000Y86270000D03*
X87000000Y83730000D03*
X87000000Y81190000D03*
X87000000Y78650000D03*
X87000000Y76110000D03*
%TD*%
D10*
%TO.C,C21*%
X76225000Y61500000D03*
X77775000Y61500000D03*
%TD*%
D29*
%TO.C,Con6*%
X95725000Y6500000D03*
D28*
X98265000Y6500000D03*
%TD*%
D11*
%TO.C,U14*%
X25600000Y61750000D03*
X25600000Y61250000D03*
X25600000Y60750000D03*
X25600000Y60250000D03*
X28400000Y60250000D03*
X28400000Y60750000D03*
X28400000Y61250000D03*
X28400000Y61750000D03*
%TD*%
D10*
%TO.C,C29*%
X106225000Y53500000D03*
X107775000Y53500000D03*
%TD*%
D17*
%TO.C,R37*%
X111825000Y67500000D03*
X110175000Y67500000D03*
%TD*%
D10*
%TO.C,C13*%
X31225000Y57500000D03*
X32775000Y57500000D03*
%TD*%
D45*
%TO.C,C8*%
X73500000Y42275000D03*
X73500000Y40725000D03*
%TD*%
D29*
%TO.C,Con14*%
X57000000Y93890000D03*
D28*
X57000000Y91350000D03*
X57000000Y88810000D03*
X57000000Y86270000D03*
X57000000Y83730000D03*
X57000000Y81190000D03*
X57000000Y78650000D03*
X57000000Y76110000D03*
%TD*%
D19*
%TO.C,R31*%
X92825000Y48000000D03*
X91175000Y48000000D03*
%TD*%
D29*
%TO.C,Con13*%
X42000000Y93890000D03*
D28*
X42000000Y91350000D03*
X42000000Y88810000D03*
X42000000Y86270000D03*
X42000000Y83730000D03*
X42000000Y81190000D03*
X42000000Y78650000D03*
X42000000Y76110000D03*
%TD*%
D17*
%TO.C,R8*%
X97675000Y12500000D03*
X99325000Y12500000D03*
%TD*%
D29*
%TO.C,Con15*%
X72000000Y93890000D03*
D28*
X72000000Y91350000D03*
X72000000Y88810000D03*
X72000000Y86270000D03*
X72000000Y83730000D03*
X72000000Y81190000D03*
X72000000Y78650000D03*
X72000000Y76110000D03*
%TD*%
D20*
%TO.C,Q6*%
X28137500Y48050000D03*
X28137500Y49950000D03*
X25862500Y49000000D03*
%TD*%
D10*
%TO.C,C16*%
X46225000Y57500000D03*
X47775000Y57500000D03*
%TD*%
D29*
%TO.C,Con4*%
X123000000Y15540000D03*
D28*
X123000000Y13000000D03*
%TD*%
D14*
%TO.C,D20*%
X77500000Y40712500D03*
X77500000Y42287500D03*
%TD*%
D19*
%TO.C,R19*%
X47825000Y48000000D03*
X46175000Y48000000D03*
%TD*%
D15*
%TO.C,C5*%
X22525000Y23000000D03*
X25475000Y23000000D03*
%TD*%
D10*
%TO.C,C12*%
X31225000Y61500000D03*
X32775000Y61500000D03*
%TD*%
D46*
%TO.C,U5*%
X30350000Y10300000D03*
X30350000Y8000000D03*
D47*
X36650000Y8000000D03*
D46*
X30350000Y5700000D03*
%TD*%
D33*
%TO.C,U4*%
X29800000Y18560000D03*
D34*
X36100000Y16280000D03*
D33*
X29800000Y14000000D03*
%TD*%
D17*
%TO.C,R16*%
X31175000Y50000000D03*
X32825000Y50000000D03*
%TD*%
D11*
%TO.C,U25*%
X55600000Y57750000D03*
X55600000Y57250000D03*
X55600000Y56750000D03*
X55600000Y56250000D03*
X58400000Y56250000D03*
X58400000Y56750000D03*
X58400000Y57250000D03*
X58400000Y57750000D03*
%TD*%
D18*
%TO.C,Con5*%
X118587500Y26467500D03*
X118587500Y29007500D03*
X118587500Y31547500D03*
X116047500Y26467500D03*
X116047500Y29007500D03*
X116047500Y31547500D03*
%TD*%
D48*
%TO.C,SW3*%
X79500000Y18925000D03*
X79500000Y26675000D03*
%TD*%
D17*
%TO.C,R7*%
X90175000Y18500000D03*
X91825000Y18500000D03*
%TD*%
D12*
%TO.C,D12*%
X32212500Y38000000D03*
X33787500Y38000000D03*
%TD*%
D27*
%TO.C,U7*%
X15000000Y67770000D03*
X15000000Y65230000D03*
X9000000Y65230000D03*
X9000000Y67770000D03*
%TD*%
D11*
%TO.C,U35*%
X85600000Y57750000D03*
X85600000Y57250000D03*
X85600000Y56750000D03*
X85600000Y56250000D03*
X88400000Y56250000D03*
X88400000Y56750000D03*
X88400000Y57250000D03*
X88400000Y57750000D03*
%TD*%
D49*
%TO.C,J1*%
X92920000Y28892500D03*
D50*
X95460000Y28892500D03*
X98000000Y28892500D03*
X100540000Y28892500D03*
X103080000Y28892500D03*
X103080000Y41392500D03*
X100540000Y41392500D03*
X98000000Y41392500D03*
X95460000Y41392500D03*
X92920000Y41392500D03*
%TD*%
D51*
X0Y99000000D02*
X129000000Y99000000D01*
X129000000Y0D01*
X0Y0D01*
X0Y99000000D01*
M02*
