M48
; DRILL file KiCad 10.0.4 date 2026-08-12T10:30:07
; FORMAT={-:-/ absolute / metric / decimal}
; #@! TF.CreationDate,2026-08-12T10:30:07+09:00
; #@! TF.GenerationSoftware,Kicad,Pcbnew,10.0.4
; #@! TF.FileFunction,Plated,1,2,PTH
FMAT,2
METRIC
; #@! TA.AperFunction,Plated,PTH,ViaDrill
T1C0.300
; #@! TA.AperFunction,Plated,PTH,ComponentDrill
T2C0.800
; #@! TA.AperFunction,Plated,PTH,ComponentDrill
T3C0.889
; #@! TA.AperFunction,Plated,PTH,ComponentDrill
T4C1.000
; #@! TA.AperFunction,Plated,PTH,ComponentDrill
T5C1.300
%
G90
G05
T1
X5.0Y84.0
X5.0Y62.0
X5.0Y38.0
X6.0Y76.11
X6.575Y55.1
X6.6Y86.3
X7.175Y51.175
X7.2Y78.65
X7.775Y81.2
X8.375Y83.73
X8.5Y46.5
X9.0Y85.1
X9.35Y53.45
X9.4Y61.4
X9.4Y57.4
X9.5Y55.0
X9.5Y50.0
X9.6Y87.6
X10.0Y63.5
X10.0Y59.0
X11.9Y54.1
X12.0Y62.2
X12.0Y60.3
X12.0Y56.3
X12.0Y52.3
X12.0Y5.0
X12.1Y58.2
X12.2Y36.0
X12.75Y28.5
X13.3Y65.2
X14.6Y56.2
X14.7Y60.1
X14.7Y52.2
X15.0Y73.9
X15.0Y69.0
X15.0Y29.5
X15.1Y53.1
X15.7Y73.275
X16.3Y72.675
X16.9Y72.075
X17.2Y36.0
X17.5Y71.475
X17.825Y51.175
X18.0Y84.0
X18.0Y22.9
X18.1Y70.875
X18.8Y70.3
X19.0Y33.0
X19.0Y20.5
X19.3Y45.9
X19.5Y18.0
X19.5Y14.5
X19.5Y8.5
X20.0Y94.0
X20.0Y75.0
X20.0Y52.0
X20.4Y12.2
X21.1Y76.11
X21.5Y21.5
X21.7Y86.3
X22.2Y36.0
X22.3Y78.65
X22.9Y81.19
X23.5Y83.7
X24.1Y85.1
X24.3Y61.4
X24.3Y57.4
X24.3Y53.4
X24.5Y59.0
X24.5Y50.0
X24.7Y87.6
X25.0Y63.5
X25.0Y55.0
X27.0Y62.2
X27.0Y60.3
X27.0Y58.2
X27.0Y56.3
X27.0Y54.2
X27.0Y52.3
X27.2Y36.0
X28.0Y32.0
X28.4Y65.2
X29.7Y60.2
X29.7Y56.3
X29.7Y52.2
X30.0Y73.9
X30.0Y69.0
X30.0Y45.0
X30.6Y73.3
X31.0Y41.5
X31.2Y72.7
X31.8Y72.1
X32.2Y36.0
X32.4Y71.5
X32.825Y51.175
X33.0Y84.0
X33.0Y70.9
X33.6Y70.3
X34.7Y45.7
X35.0Y94.0
X35.0Y75.0
X35.0Y52.0
X35.975Y76.1
X36.65Y86.3
X37.2Y78.7
X37.2Y36.0
X37.9Y81.1
X38.0Y31.0
X38.5Y83.7
X39.1Y85.1
X39.3Y61.4
X39.3Y57.4
X39.3Y53.4
X39.5Y59.0
X39.5Y55.0
X39.7Y87.6
X40.0Y63.5
X40.0Y50.0
X41.0Y5.0
X42.0Y62.2
X42.0Y60.3
X42.0Y58.2
X42.0Y56.3
X42.0Y54.2
X42.0Y52.3
X42.2Y36.0
X43.1Y65.2
X44.0Y21.5
X44.7Y60.3
X44.7Y56.3
X44.7Y52.3
X45.0Y73.9
X45.0Y69.0
X45.6Y73.3
X46.2Y72.7
X46.5Y45.5
X46.8Y72.1
X47.2Y36.0
X47.4Y71.5
X47.825Y51.175
X48.0Y84.0
X48.0Y70.9
X48.6Y70.3
X49.2Y46.3
X50.0Y94.0
X50.0Y75.0
X50.0Y52.0
X50.0Y41.5
X51.075Y76.1
X51.7Y86.3
X52.275Y78.7
X52.875Y81.2
X53.475Y83.7
X53.5Y41.6
X53.5Y25.5
X54.075Y85.1
X54.3Y61.4
X54.3Y57.4
X54.3Y53.4
X54.5Y50.0
X54.7Y87.6
X55.0Y63.5
X55.0Y59.0
X55.0Y55.0
X55.5Y25.0
X57.0Y62.1
X57.0Y60.3
X57.0Y58.2
X57.0Y56.3
X57.0Y54.1
X57.0Y52.3
X57.0Y28.0
X57.0Y19.0
X58.3Y65.2
X58.4Y39.3
X59.5Y37.5
X59.5Y25.5
X59.5Y21.5
X59.7Y60.3
X59.7Y56.3
X59.7Y52.3
X59.9Y43.0
X60.0Y73.9
X60.0Y69.0
X60.4Y43.6
X60.6Y73.3
X61.0Y44.2
X61.0Y31.0
X61.1Y29.7
X61.2Y72.7
X61.5Y16.5
X61.8Y72.1
X61.9Y30.7
X62.0Y45.5
X62.4Y71.5
X62.7Y30.7
X62.825Y51.175
X63.0Y84.0
X63.0Y70.9
X63.5Y30.4
X63.5Y25.5
X63.5Y22.5
X63.6Y70.3
X64.5Y46.5
X65.0Y94.0
X65.0Y75.0
X65.0Y52.0
X66.0Y76.11
X66.0Y28.0
X66.0Y19.0
X66.0Y5.0
X66.6Y86.3
X67.0Y37.5
X67.2Y78.65
X67.5Y42.0
X67.8Y81.2
X68.0Y24.0
X68.4Y83.7
X68.5Y20.7
X68.8Y28.3
X69.0Y84.8
X69.0Y31.5
X69.1Y40.7
X69.3Y61.4
X69.3Y57.4
X69.3Y53.4
X69.3Y28.9
X69.5Y59.0
X69.5Y55.0
X69.5Y50.0
X69.6Y87.6
X69.8Y29.6
X70.0Y63.5
X70.2Y45.5
X70.6Y17.4
X70.8Y44.9
X71.7Y44.3
X72.0Y62.1
X72.0Y60.3
X72.0Y58.2
X72.0Y56.3
X72.0Y54.1
X72.0Y52.3
X73.3Y65.2
X74.65Y29.75
X74.7Y60.3
X74.7Y56.3
X74.7Y52.3
X75.0Y73.9
X75.0Y69.0
X75.0Y27.5
X75.7Y73.3
X75.794Y33.429
X75.884Y29.6
X76.3Y72.7
X76.475Y33.9
X76.9Y72.1
X77.125Y34.3
X77.4Y39.0
X77.5Y71.5
X77.825Y51.175
X78.0Y84.0
X78.1Y70.9
X78.4Y33.9
X78.7Y70.3
X79.0Y39.0
X79.9Y33.3
X80.0Y94.0
X80.0Y75.0
X80.0Y52.0
X80.975Y76.1
X81.4Y32.7
X81.6Y86.3
X82.0Y47.0
X82.175Y78.6
X82.5Y38.0
X82.775Y81.2
X83.375Y83.7
X83.5Y31.0
X83.5Y26.5
X83.7Y45.6
X84.0Y85.1
X84.3Y61.4
X84.3Y57.4
X84.3Y53.4
X84.5Y59.0
X84.5Y55.0
X84.5Y50.0
X84.6Y87.5
X85.0Y63.5
X85.0Y18.5
X85.9Y36.4
X86.5Y22.7
X87.0Y62.1
X87.0Y60.3
X87.0Y58.1
X87.0Y56.3
X87.0Y54.1
X87.0Y52.3
X87.0Y43.0
X87.1Y29.0
X87.2Y36.6
X88.0Y14.0
X88.2Y65.2
X88.4Y36.3
X88.4Y29.6
X89.7Y60.3
X89.7Y56.3
X89.7Y52.3
X90.0Y73.9
X90.0Y69.0
X90.6Y73.3
X91.2Y72.7
X91.8Y72.1
X92.4Y71.5
X92.825Y51.175
X92.9Y35.1
X93.0Y84.0
X93.0Y70.9
X93.0Y25.5
X93.6Y70.3
X94.5Y46.0
X95.0Y94.0
X95.0Y75.0
X95.0Y52.0
X95.5Y32.9
X96.0Y76.1
X96.6Y86.3
X96.6Y33.8
X97.175Y78.6
X97.5Y17.0
X97.775Y81.2
X98.3Y45.0
X98.375Y83.7
X99.0Y85.1
X99.3Y57.4
X99.3Y53.4
X99.425Y61.4
X99.5Y50.0
X99.6Y87.6
X100.0Y63.5
X100.0Y59.0
X100.0Y55.0
X101.0Y11.5
X102.0Y62.1
X102.0Y60.3
X102.0Y58.1
X102.0Y56.3
X102.0Y54.1
X102.0Y52.3
X103.2Y65.2
X104.7Y60.3
X104.7Y56.3
X104.7Y52.3
X105.0Y73.9
X105.0Y69.0
X105.5Y15.0
X105.6Y73.3
X106.2Y72.7
X106.8Y72.1
X106.8Y60.2
X107.4Y71.5
X107.4Y59.6
X107.825Y51.175
X108.0Y84.0
X108.0Y70.9
X108.0Y59.0
X108.5Y25.5
X108.6Y70.3
X109.0Y52.0
X109.5Y46.0
X109.975Y50.3
X110.0Y94.0
X110.0Y75.0
X110.5Y41.5
X110.5Y29.0
X110.6Y49.6
X110.975Y76.1
X111.3Y49.1
X111.6Y86.2
X112.175Y78.6
X112.775Y81.2
X113.0Y11.5
X113.375Y83.7
X113.6Y46.0
X113.975Y85.1
X114.3Y61.4
X114.3Y57.4
X114.3Y53.4
X114.5Y59.0
X114.6Y87.5
X115.0Y63.5
X115.0Y55.0
X115.0Y5.0
X115.5Y38.5
X117.0Y62.1
X117.0Y60.3
X117.0Y58.1
X117.0Y56.3
X117.0Y54.1
X117.0Y52.3
X117.5Y24.0
X118.3Y65.2
X119.5Y35.5
X119.7Y60.3
X119.7Y56.3
X119.7Y52.3
X120.0Y73.9
X120.0Y69.0
X120.0Y50.0
X120.0Y45.5
X120.1Y37.85
X120.6Y73.3
X121.2Y72.7
X121.8Y72.1
X122.4Y71.5
X122.4Y45.1
X122.825Y51.175
X122.963Y70.982
X123.0Y75.0
X123.175Y70.3
X124.0Y19.0
X125.0Y43.5
T2
X92.92Y41.392
X92.92Y28.892
X95.46Y41.392
X95.46Y28.892
X98.0Y41.392
X98.0Y28.892
X100.54Y41.392
X100.54Y28.892
X103.08Y41.392
X103.08Y28.892
T3
X72.412Y25.54
X72.412Y23.0
X72.412Y20.46
X74.953Y25.54
X74.953Y23.0
X74.953Y20.46
X116.047Y31.547
X116.047Y29.008
X116.047Y26.467
X118.587Y31.547
X118.587Y29.008
X118.587Y26.467
T4
X4.96Y32.54
X4.96Y30.0
X4.96Y27.46
X7.5Y32.54
X7.5Y30.0
X7.5Y27.46
X12.0Y93.89
X12.0Y91.35
X12.0Y88.81
X12.0Y86.27
X12.0Y83.73
X12.0Y81.19
X12.0Y78.65
X12.0Y76.11
X27.0Y93.89
X27.0Y91.35
X27.0Y88.81
X27.0Y86.27
X27.0Y83.73
X27.0Y81.19
X27.0Y78.65
X27.0Y76.11
X42.0Y93.89
X42.0Y91.35
X42.0Y88.81
X42.0Y86.27
X42.0Y83.73
X42.0Y81.19
X42.0Y78.65
X42.0Y76.11
X57.0Y93.89
X57.0Y91.35
X57.0Y88.81
X57.0Y86.27
X57.0Y83.73
X57.0Y81.19
X57.0Y78.65
X57.0Y76.11
X72.0Y93.89
X72.0Y91.35
X72.0Y88.81
X72.0Y86.27
X72.0Y83.73
X72.0Y81.19
X72.0Y78.65
X72.0Y76.11
X87.0Y93.89
X87.0Y91.35
X87.0Y88.81
X87.0Y86.27
X87.0Y83.73
X87.0Y81.19
X87.0Y78.65
X87.0Y76.11
X95.725Y6.5
X98.265Y6.5
X102.0Y93.89
X102.0Y91.35
X102.0Y88.81
X102.0Y86.27
X102.0Y83.73
X102.0Y81.19
X102.0Y78.65
X102.0Y76.11
X117.0Y93.89
X117.0Y91.35
X117.0Y88.81
X117.0Y86.27
X117.0Y83.73
X117.0Y81.19
X117.0Y78.65
X117.0Y76.11
X123.0Y15.54
X123.0Y13.0
X124.0Y40.39
X124.0Y37.85
X124.0Y35.31
X124.0Y32.77
X124.0Y30.23
X124.0Y27.69
X124.0Y25.15
X124.0Y22.61
T5
X45.75Y11.5
X45.75Y6.5
X58.25Y11.5
X58.25Y6.5
X74.75Y11.5
X74.75Y6.5
X87.25Y11.5
X87.25Y6.5
M30
