%TF.GenerationSoftware,KiCad,Pcbnew,10.0.4*%
%TF.CreationDate,2026-08-12T10:30:17+09:00*%
%TF.ProjectId,jig,6a69672e-6b69-4636-9164-5f7063625858,rev?*%
%TF.SameCoordinates,Original*%
%TF.FileFunction,Legend,Bot*%
%TF.FilePolarity,Positive*%
%FSLAX46Y46*%
G04 Gerber Fmt 4.6, Leading zero omitted, Abs format (unit mm)*
G04 Created by KiCad (PCBNEW 10.0.4) date 2026-08-12 10:30:17*
%MOMM*%
%LPD*%
G01*
G04 APERTURE LIST*
%ADD10C,0.100000*%
%TA.AperFunction,Profile*%
%ADD11C,0.050000*%
%TD*%
G04 APERTURE END LIST*
D10*
X23000000Y16500000D02*
X53750000Y16500000D01*
X53750000Y18000000D02*
X23000000Y18000000D01*
X23000000Y19750000D02*
X53750000Y19750000D01*
X53750000Y21250000D02*
X23000000Y21250000D01*
X53750000Y22750000D02*
X23000000Y22750000D01*
X53750000Y24500000D02*
X23000000Y24500000D01*
X53750000Y26000000D02*
X23000000Y26000000D01*
X53750000Y27750000D02*
X23000000Y27750000D01*
X44500000Y29750000D02*
X44500000Y14500000D01*
X36000000Y29750000D02*
X36000000Y14500000D01*
X29500000Y29750000D02*
X29500000Y14500000D01*
X23000000Y29750000D02*
X53750000Y29750000D01*
X53750000Y14500000D01*
X23000000Y14500000D01*
X23000000Y29750000D01*
X28196115Y28007132D02*
X28196115Y29007132D01*
X27767544Y28054752D02*
X27624687Y28007132D01*
X27624687Y28007132D02*
X27386592Y28007132D01*
X27386592Y28007132D02*
X27291354Y28054752D01*
X27291354Y28054752D02*
X27243735Y28102371D01*
X27243735Y28102371D02*
X27196116Y28197609D01*
X27196116Y28197609D02*
X27196116Y28292847D01*
X27196116Y28292847D02*
X27243735Y28388085D01*
X27243735Y28388085D02*
X27291354Y28435704D01*
X27291354Y28435704D02*
X27386592Y28483323D01*
X27386592Y28483323D02*
X27577068Y28530942D01*
X27577068Y28530942D02*
X27672306Y28578561D01*
X27672306Y28578561D02*
X27719925Y28626180D01*
X27719925Y28626180D02*
X27767544Y28721418D01*
X27767544Y28721418D02*
X27767544Y28816656D01*
X27767544Y28816656D02*
X27719925Y28911894D01*
X27719925Y28911894D02*
X27672306Y28959513D01*
X27672306Y28959513D02*
X27577068Y29007132D01*
X27577068Y29007132D02*
X27338973Y29007132D01*
X27338973Y29007132D02*
X27196116Y28959513D01*
X26767544Y28007132D02*
X26767544Y29007132D01*
X26767544Y29007132D02*
X26386592Y29007132D01*
X26386592Y29007132D02*
X26291354Y28959513D01*
X26291354Y28959513D02*
X26243735Y28911894D01*
X26243735Y28911894D02*
X26196116Y28816656D01*
X26196116Y28816656D02*
X26196116Y28673799D01*
X26196116Y28673799D02*
X26243735Y28578561D01*
X26243735Y28578561D02*
X26291354Y28530942D01*
X26291354Y28530942D02*
X26386592Y28483323D01*
X26386592Y28483323D02*
X26767544Y28483323D01*
X28196115Y26492427D02*
X28148496Y26444808D01*
X28148496Y26444808D02*
X28196115Y26397188D01*
X28196115Y26397188D02*
X28243734Y26444808D01*
X28243734Y26444808D02*
X28196115Y26492427D01*
X28196115Y26492427D02*
X28196115Y26397188D01*
X28338972Y25787244D02*
X28005639Y24787244D01*
X28005639Y24787244D02*
X27672306Y25787244D01*
X27481829Y25787244D02*
X26910401Y25787244D01*
X27196115Y24787244D02*
X27196115Y25787244D01*
X26053258Y25739625D02*
X26148496Y25787244D01*
X26148496Y25787244D02*
X26291353Y25787244D01*
X26291353Y25787244D02*
X26434210Y25739625D01*
X26434210Y25739625D02*
X26529448Y25644387D01*
X26529448Y25644387D02*
X26577067Y25549149D01*
X26577067Y25549149D02*
X26624686Y25358673D01*
X26624686Y25358673D02*
X26624686Y25215816D01*
X26624686Y25215816D02*
X26577067Y25025340D01*
X26577067Y25025340D02*
X26529448Y24930102D01*
X26529448Y24930102D02*
X26434210Y24834864D01*
X26434210Y24834864D02*
X26291353Y24787244D01*
X26291353Y24787244D02*
X26196115Y24787244D01*
X26196115Y24787244D02*
X26053258Y24834864D01*
X26053258Y24834864D02*
X26005639Y24882483D01*
X26005639Y24882483D02*
X26005639Y25215816D01*
X26005639Y25215816D02*
X26196115Y25215816D01*
X27672306Y24129681D02*
X27767544Y24177300D01*
X27767544Y24177300D02*
X27910401Y24177300D01*
X27910401Y24177300D02*
X28053258Y24129681D01*
X28053258Y24129681D02*
X28148496Y24034443D01*
X28148496Y24034443D02*
X28196115Y23939205D01*
X28196115Y23939205D02*
X28243734Y23748729D01*
X28243734Y23748729D02*
X28243734Y23605872D01*
X28243734Y23605872D02*
X28196115Y23415396D01*
X28196115Y23415396D02*
X28148496Y23320158D01*
X28148496Y23320158D02*
X28053258Y23224920D01*
X28053258Y23224920D02*
X27910401Y23177300D01*
X27910401Y23177300D02*
X27815163Y23177300D01*
X27815163Y23177300D02*
X27672306Y23224920D01*
X27672306Y23224920D02*
X27624687Y23272539D01*
X27624687Y23272539D02*
X27624687Y23605872D01*
X27624687Y23605872D02*
X27815163Y23605872D01*
X27196115Y23177300D02*
X27196115Y24177300D01*
X27196115Y24177300D02*
X26624687Y23177300D01*
X26624687Y23177300D02*
X26624687Y24177300D01*
X26148496Y23177300D02*
X26148496Y24177300D01*
X26148496Y24177300D02*
X25910401Y24177300D01*
X25910401Y24177300D02*
X25767544Y24129681D01*
X25767544Y24129681D02*
X25672306Y24034443D01*
X25672306Y24034443D02*
X25624687Y23939205D01*
X25624687Y23939205D02*
X25577068Y23748729D01*
X25577068Y23748729D02*
X25577068Y23605872D01*
X25577068Y23605872D02*
X25624687Y23415396D01*
X25624687Y23415396D02*
X25672306Y23320158D01*
X25672306Y23320158D02*
X25767544Y23224920D01*
X25767544Y23224920D02*
X25910401Y23177300D01*
X25910401Y23177300D02*
X26148496Y23177300D01*
X28196115Y21567356D02*
X28196115Y22567356D01*
X28196115Y22567356D02*
X27862782Y21853071D01*
X27862782Y21853071D02*
X27529449Y22567356D01*
X27529449Y22567356D02*
X27529449Y21567356D01*
X27053258Y21567356D02*
X27053258Y22567356D01*
X26624687Y21614976D02*
X26481830Y21567356D01*
X26481830Y21567356D02*
X26243735Y21567356D01*
X26243735Y21567356D02*
X26148497Y21614976D01*
X26148497Y21614976D02*
X26100878Y21662595D01*
X26100878Y21662595D02*
X26053259Y21757833D01*
X26053259Y21757833D02*
X26053259Y21853071D01*
X26053259Y21853071D02*
X26100878Y21948309D01*
X26100878Y21948309D02*
X26148497Y21995928D01*
X26148497Y21995928D02*
X26243735Y22043547D01*
X26243735Y22043547D02*
X26434211Y22091166D01*
X26434211Y22091166D02*
X26529449Y22138785D01*
X26529449Y22138785D02*
X26577068Y22186404D01*
X26577068Y22186404D02*
X26624687Y22281642D01*
X26624687Y22281642D02*
X26624687Y22376880D01*
X26624687Y22376880D02*
X26577068Y22472118D01*
X26577068Y22472118D02*
X26529449Y22519737D01*
X26529449Y22519737D02*
X26434211Y22567356D01*
X26434211Y22567356D02*
X26196116Y22567356D01*
X26196116Y22567356D02*
X26053259Y22519737D01*
X25434211Y22567356D02*
X25243735Y22567356D01*
X25243735Y22567356D02*
X25148497Y22519737D01*
X25148497Y22519737D02*
X25053259Y22424499D01*
X25053259Y22424499D02*
X25005640Y22234023D01*
X25005640Y22234023D02*
X25005640Y21900690D01*
X25005640Y21900690D02*
X25053259Y21710214D01*
X25053259Y21710214D02*
X25148497Y21614976D01*
X25148497Y21614976D02*
X25243735Y21567356D01*
X25243735Y21567356D02*
X25434211Y21567356D01*
X25434211Y21567356D02*
X25529449Y21614976D01*
X25529449Y21614976D02*
X25624687Y21710214D01*
X25624687Y21710214D02*
X25672306Y21900690D01*
X25672306Y21900690D02*
X25672306Y22234023D01*
X25672306Y22234023D02*
X25624687Y22424499D01*
X25624687Y22424499D02*
X25529449Y22519737D01*
X25529449Y22519737D02*
X25434211Y22567356D01*
X28243734Y20005032D02*
X28100877Y19957412D01*
X28100877Y19957412D02*
X27862782Y19957412D01*
X27862782Y19957412D02*
X27767544Y20005032D01*
X27767544Y20005032D02*
X27719925Y20052651D01*
X27719925Y20052651D02*
X27672306Y20147889D01*
X27672306Y20147889D02*
X27672306Y20243127D01*
X27672306Y20243127D02*
X27719925Y20338365D01*
X27719925Y20338365D02*
X27767544Y20385984D01*
X27767544Y20385984D02*
X27862782Y20433603D01*
X27862782Y20433603D02*
X28053258Y20481222D01*
X28053258Y20481222D02*
X28148496Y20528841D01*
X28148496Y20528841D02*
X28196115Y20576460D01*
X28196115Y20576460D02*
X28243734Y20671698D01*
X28243734Y20671698D02*
X28243734Y20766936D01*
X28243734Y20766936D02*
X28196115Y20862174D01*
X28196115Y20862174D02*
X28148496Y20909793D01*
X28148496Y20909793D02*
X28053258Y20957412D01*
X28053258Y20957412D02*
X27815163Y20957412D01*
X27815163Y20957412D02*
X27672306Y20909793D01*
X26672306Y20052651D02*
X26719925Y20005032D01*
X26719925Y20005032D02*
X26862782Y19957412D01*
X26862782Y19957412D02*
X26958020Y19957412D01*
X26958020Y19957412D02*
X27100877Y20005032D01*
X27100877Y20005032D02*
X27196115Y20100270D01*
X27196115Y20100270D02*
X27243734Y20195508D01*
X27243734Y20195508D02*
X27291353Y20385984D01*
X27291353Y20385984D02*
X27291353Y20528841D01*
X27291353Y20528841D02*
X27243734Y20719317D01*
X27243734Y20719317D02*
X27196115Y20814555D01*
X27196115Y20814555D02*
X27100877Y20909793D01*
X27100877Y20909793D02*
X26958020Y20957412D01*
X26958020Y20957412D02*
X26862782Y20957412D01*
X26862782Y20957412D02*
X26719925Y20909793D01*
X26719925Y20909793D02*
X26672306Y20862174D01*
X26243734Y19957412D02*
X26243734Y20957412D01*
X25672306Y19957412D02*
X26100877Y20528841D01*
X25672306Y20957412D02*
X26243734Y20385984D01*
X27624687Y18347468D02*
X27958020Y18823659D01*
X28196115Y18347468D02*
X28196115Y19347468D01*
X28196115Y19347468D02*
X27815163Y19347468D01*
X27815163Y19347468D02*
X27719925Y19299849D01*
X27719925Y19299849D02*
X27672306Y19252230D01*
X27672306Y19252230D02*
X27624687Y19156992D01*
X27624687Y19156992D02*
X27624687Y19014135D01*
X27624687Y19014135D02*
X27672306Y18918897D01*
X27672306Y18918897D02*
X27719925Y18871278D01*
X27719925Y18871278D02*
X27815163Y18823659D01*
X27815163Y18823659D02*
X28196115Y18823659D01*
X26815163Y18395088D02*
X26910401Y18347468D01*
X26910401Y18347468D02*
X27100877Y18347468D01*
X27100877Y18347468D02*
X27196115Y18395088D01*
X27196115Y18395088D02*
X27243734Y18490326D01*
X27243734Y18490326D02*
X27243734Y18871278D01*
X27243734Y18871278D02*
X27196115Y18966516D01*
X27196115Y18966516D02*
X27100877Y19014135D01*
X27100877Y19014135D02*
X26910401Y19014135D01*
X26910401Y19014135D02*
X26815163Y18966516D01*
X26815163Y18966516D02*
X26767544Y18871278D01*
X26767544Y18871278D02*
X26767544Y18776040D01*
X26767544Y18776040D02*
X27243734Y18680802D01*
X26386591Y18395088D02*
X26291353Y18347468D01*
X26291353Y18347468D02*
X26100877Y18347468D01*
X26100877Y18347468D02*
X26005639Y18395088D01*
X26005639Y18395088D02*
X25958020Y18490326D01*
X25958020Y18490326D02*
X25958020Y18537945D01*
X25958020Y18537945D02*
X26005639Y18633183D01*
X26005639Y18633183D02*
X26100877Y18680802D01*
X26100877Y18680802D02*
X26243734Y18680802D01*
X26243734Y18680802D02*
X26338972Y18728421D01*
X26338972Y18728421D02*
X26386591Y18823659D01*
X26386591Y18823659D02*
X26386591Y18871278D01*
X26386591Y18871278D02*
X26338972Y18966516D01*
X26338972Y18966516D02*
X26243734Y19014135D01*
X26243734Y19014135D02*
X26100877Y19014135D01*
X26100877Y19014135D02*
X26005639Y18966516D01*
X25148496Y18395088D02*
X25243734Y18347468D01*
X25243734Y18347468D02*
X25434210Y18347468D01*
X25434210Y18347468D02*
X25529448Y18395088D01*
X25529448Y18395088D02*
X25577067Y18490326D01*
X25577067Y18490326D02*
X25577067Y18871278D01*
X25577067Y18871278D02*
X25529448Y18966516D01*
X25529448Y18966516D02*
X25434210Y19014135D01*
X25434210Y19014135D02*
X25243734Y19014135D01*
X25243734Y19014135D02*
X25148496Y18966516D01*
X25148496Y18966516D02*
X25100877Y18871278D01*
X25100877Y18871278D02*
X25100877Y18776040D01*
X25100877Y18776040D02*
X25577067Y18680802D01*
X24815162Y19014135D02*
X24434210Y19014135D01*
X24672305Y19347468D02*
X24672305Y18490326D01*
X24672305Y18490326D02*
X24624686Y18395088D01*
X24624686Y18395088D02*
X24529448Y18347468D01*
X24529448Y18347468D02*
X24434210Y18347468D01*
X28196115Y16737524D02*
X28196115Y17737524D01*
X28196115Y17737524D02*
X27862782Y17023239D01*
X27862782Y17023239D02*
X27529449Y17737524D01*
X27529449Y17737524D02*
X27529449Y16737524D01*
X26862782Y17737524D02*
X26672306Y17737524D01*
X26672306Y17737524D02*
X26577068Y17689905D01*
X26577068Y17689905D02*
X26481830Y17594667D01*
X26481830Y17594667D02*
X26434211Y17404191D01*
X26434211Y17404191D02*
X26434211Y17070858D01*
X26434211Y17070858D02*
X26481830Y16880382D01*
X26481830Y16880382D02*
X26577068Y16785144D01*
X26577068Y16785144D02*
X26672306Y16737524D01*
X26672306Y16737524D02*
X26862782Y16737524D01*
X26862782Y16737524D02*
X26958020Y16785144D01*
X26958020Y16785144D02*
X27053258Y16880382D01*
X27053258Y16880382D02*
X27100877Y17070858D01*
X27100877Y17070858D02*
X27100877Y17404191D01*
X27100877Y17404191D02*
X27053258Y17594667D01*
X27053258Y17594667D02*
X26958020Y17689905D01*
X26958020Y17689905D02*
X26862782Y17737524D01*
X26053258Y16785144D02*
X25910401Y16737524D01*
X25910401Y16737524D02*
X25672306Y16737524D01*
X25672306Y16737524D02*
X25577068Y16785144D01*
X25577068Y16785144D02*
X25529449Y16832763D01*
X25529449Y16832763D02*
X25481830Y16928001D01*
X25481830Y16928001D02*
X25481830Y17023239D01*
X25481830Y17023239D02*
X25529449Y17118477D01*
X25529449Y17118477D02*
X25577068Y17166096D01*
X25577068Y17166096D02*
X25672306Y17213715D01*
X25672306Y17213715D02*
X25862782Y17261334D01*
X25862782Y17261334D02*
X25958020Y17308953D01*
X25958020Y17308953D02*
X26005639Y17356572D01*
X26005639Y17356572D02*
X26053258Y17451810D01*
X26053258Y17451810D02*
X26053258Y17547048D01*
X26053258Y17547048D02*
X26005639Y17642286D01*
X26005639Y17642286D02*
X25958020Y17689905D01*
X25958020Y17689905D02*
X25862782Y17737524D01*
X25862782Y17737524D02*
X25624687Y17737524D01*
X25624687Y17737524D02*
X25481830Y17689905D01*
X25053258Y16737524D02*
X25053258Y17737524D01*
X28196115Y15222819D02*
X28148496Y15175200D01*
X28148496Y15175200D02*
X28196115Y15127580D01*
X28196115Y15127580D02*
X28243734Y15175200D01*
X28243734Y15175200D02*
X28196115Y15222819D01*
X28196115Y15222819D02*
X28196115Y15127580D01*
X34410401Y29007132D02*
X34410401Y28292847D01*
X34410401Y28292847D02*
X34458020Y28149990D01*
X34458020Y28149990D02*
X34553258Y28054752D01*
X34553258Y28054752D02*
X34696115Y28007132D01*
X34696115Y28007132D02*
X34791353Y28007132D01*
X34077067Y29007132D02*
X33505639Y29007132D01*
X33791353Y28007132D02*
X33791353Y29007132D01*
X33219924Y28292847D02*
X32743734Y28292847D01*
X33315162Y28007132D02*
X32981829Y29007132D01*
X32981829Y29007132D02*
X32648496Y28007132D01*
X31791353Y28959513D02*
X31886591Y29007132D01*
X31886591Y29007132D02*
X32029448Y29007132D01*
X32029448Y29007132D02*
X32172305Y28959513D01*
X32172305Y28959513D02*
X32267543Y28864275D01*
X32267543Y28864275D02*
X32315162Y28769037D01*
X32315162Y28769037D02*
X32362781Y28578561D01*
X32362781Y28578561D02*
X32362781Y28435704D01*
X32362781Y28435704D02*
X32315162Y28245228D01*
X32315162Y28245228D02*
X32267543Y28149990D01*
X32267543Y28149990D02*
X32172305Y28054752D01*
X32172305Y28054752D02*
X32029448Y28007132D01*
X32029448Y28007132D02*
X31934210Y28007132D01*
X31934210Y28007132D02*
X31791353Y28054752D01*
X31791353Y28054752D02*
X31743734Y28102371D01*
X31743734Y28102371D02*
X31743734Y28435704D01*
X31743734Y28435704D02*
X31934210Y28435704D01*
X34696115Y26492427D02*
X34648496Y26444808D01*
X34648496Y26444808D02*
X34696115Y26397188D01*
X34696115Y26397188D02*
X34743734Y26444808D01*
X34743734Y26444808D02*
X34696115Y26492427D01*
X34696115Y26492427D02*
X34696115Y26397188D01*
X34838972Y25787244D02*
X34505639Y24787244D01*
X34505639Y24787244D02*
X34172306Y25787244D01*
X33981829Y25787244D02*
X33410401Y25787244D01*
X33696115Y24787244D02*
X33696115Y25787244D01*
X32553258Y25739625D02*
X32648496Y25787244D01*
X32648496Y25787244D02*
X32791353Y25787244D01*
X32791353Y25787244D02*
X32934210Y25739625D01*
X32934210Y25739625D02*
X33029448Y25644387D01*
X33029448Y25644387D02*
X33077067Y25549149D01*
X33077067Y25549149D02*
X33124686Y25358673D01*
X33124686Y25358673D02*
X33124686Y25215816D01*
X33124686Y25215816D02*
X33077067Y25025340D01*
X33077067Y25025340D02*
X33029448Y24930102D01*
X33029448Y24930102D02*
X32934210Y24834864D01*
X32934210Y24834864D02*
X32791353Y24787244D01*
X32791353Y24787244D02*
X32696115Y24787244D01*
X32696115Y24787244D02*
X32553258Y24834864D01*
X32553258Y24834864D02*
X32505639Y24882483D01*
X32505639Y24882483D02*
X32505639Y25215816D01*
X32505639Y25215816D02*
X32696115Y25215816D01*
X34172306Y24129681D02*
X34267544Y24177300D01*
X34267544Y24177300D02*
X34410401Y24177300D01*
X34410401Y24177300D02*
X34553258Y24129681D01*
X34553258Y24129681D02*
X34648496Y24034443D01*
X34648496Y24034443D02*
X34696115Y23939205D01*
X34696115Y23939205D02*
X34743734Y23748729D01*
X34743734Y23748729D02*
X34743734Y23605872D01*
X34743734Y23605872D02*
X34696115Y23415396D01*
X34696115Y23415396D02*
X34648496Y23320158D01*
X34648496Y23320158D02*
X34553258Y23224920D01*
X34553258Y23224920D02*
X34410401Y23177300D01*
X34410401Y23177300D02*
X34315163Y23177300D01*
X34315163Y23177300D02*
X34172306Y23224920D01*
X34172306Y23224920D02*
X34124687Y23272539D01*
X34124687Y23272539D02*
X34124687Y23605872D01*
X34124687Y23605872D02*
X34315163Y23605872D01*
X33696115Y23177300D02*
X33696115Y24177300D01*
X33696115Y24177300D02*
X33124687Y23177300D01*
X33124687Y23177300D02*
X33124687Y24177300D01*
X32648496Y23177300D02*
X32648496Y24177300D01*
X32648496Y24177300D02*
X32410401Y24177300D01*
X32410401Y24177300D02*
X32267544Y24129681D01*
X32267544Y24129681D02*
X32172306Y24034443D01*
X32172306Y24034443D02*
X32124687Y23939205D01*
X32124687Y23939205D02*
X32077068Y23748729D01*
X32077068Y23748729D02*
X32077068Y23605872D01*
X32077068Y23605872D02*
X32124687Y23415396D01*
X32124687Y23415396D02*
X32172306Y23320158D01*
X32172306Y23320158D02*
X32267544Y23224920D01*
X32267544Y23224920D02*
X32410401Y23177300D01*
X32410401Y23177300D02*
X32648496Y23177300D01*
X34838972Y22567356D02*
X34267544Y22567356D01*
X34553258Y21567356D02*
X34553258Y22567356D01*
X33934210Y21567356D02*
X33934210Y22567356D01*
X33934210Y22567356D02*
X33696115Y22567356D01*
X33696115Y22567356D02*
X33553258Y22519737D01*
X33553258Y22519737D02*
X33458020Y22424499D01*
X33458020Y22424499D02*
X33410401Y22329261D01*
X33410401Y22329261D02*
X33362782Y22138785D01*
X33362782Y22138785D02*
X33362782Y21995928D01*
X33362782Y21995928D02*
X33410401Y21805452D01*
X33410401Y21805452D02*
X33458020Y21710214D01*
X33458020Y21710214D02*
X33553258Y21614976D01*
X33553258Y21614976D02*
X33696115Y21567356D01*
X33696115Y21567356D02*
X33934210Y21567356D01*
X32743734Y22567356D02*
X32553258Y22567356D01*
X32553258Y22567356D02*
X32458020Y22519737D01*
X32458020Y22519737D02*
X32362782Y22424499D01*
X32362782Y22424499D02*
X32315163Y22234023D01*
X32315163Y22234023D02*
X32315163Y21900690D01*
X32315163Y21900690D02*
X32362782Y21710214D01*
X32362782Y21710214D02*
X32458020Y21614976D01*
X32458020Y21614976D02*
X32553258Y21567356D01*
X32553258Y21567356D02*
X32743734Y21567356D01*
X32743734Y21567356D02*
X32838972Y21614976D01*
X32838972Y21614976D02*
X32934210Y21710214D01*
X32934210Y21710214D02*
X32981829Y21900690D01*
X32981829Y21900690D02*
X32981829Y22234023D01*
X32981829Y22234023D02*
X32934210Y22424499D01*
X32934210Y22424499D02*
X32838972Y22519737D01*
X32838972Y22519737D02*
X32743734Y22567356D01*
X34838972Y20957412D02*
X34267544Y20957412D01*
X34553258Y19957412D02*
X34553258Y20957412D01*
X33362782Y20052651D02*
X33410401Y20005032D01*
X33410401Y20005032D02*
X33553258Y19957412D01*
X33553258Y19957412D02*
X33648496Y19957412D01*
X33648496Y19957412D02*
X33791353Y20005032D01*
X33791353Y20005032D02*
X33886591Y20100270D01*
X33886591Y20100270D02*
X33934210Y20195508D01*
X33934210Y20195508D02*
X33981829Y20385984D01*
X33981829Y20385984D02*
X33981829Y20528841D01*
X33981829Y20528841D02*
X33934210Y20719317D01*
X33934210Y20719317D02*
X33886591Y20814555D01*
X33886591Y20814555D02*
X33791353Y20909793D01*
X33791353Y20909793D02*
X33648496Y20957412D01*
X33648496Y20957412D02*
X33553258Y20957412D01*
X33553258Y20957412D02*
X33410401Y20909793D01*
X33410401Y20909793D02*
X33362782Y20862174D01*
X32934210Y19957412D02*
X32934210Y20957412D01*
X32362782Y19957412D02*
X32791353Y20528841D01*
X32362782Y20957412D02*
X32934210Y20385984D01*
X34124687Y18347468D02*
X34458020Y18823659D01*
X34696115Y18347468D02*
X34696115Y19347468D01*
X34696115Y19347468D02*
X34315163Y19347468D01*
X34315163Y19347468D02*
X34219925Y19299849D01*
X34219925Y19299849D02*
X34172306Y19252230D01*
X34172306Y19252230D02*
X34124687Y19156992D01*
X34124687Y19156992D02*
X34124687Y19014135D01*
X34124687Y19014135D02*
X34172306Y18918897D01*
X34172306Y18918897D02*
X34219925Y18871278D01*
X34219925Y18871278D02*
X34315163Y18823659D01*
X34315163Y18823659D02*
X34696115Y18823659D01*
X33315163Y18395088D02*
X33410401Y18347468D01*
X33410401Y18347468D02*
X33600877Y18347468D01*
X33600877Y18347468D02*
X33696115Y18395088D01*
X33696115Y18395088D02*
X33743734Y18490326D01*
X33743734Y18490326D02*
X33743734Y18871278D01*
X33743734Y18871278D02*
X33696115Y18966516D01*
X33696115Y18966516D02*
X33600877Y19014135D01*
X33600877Y19014135D02*
X33410401Y19014135D01*
X33410401Y19014135D02*
X33315163Y18966516D01*
X33315163Y18966516D02*
X33267544Y18871278D01*
X33267544Y18871278D02*
X33267544Y18776040D01*
X33267544Y18776040D02*
X33743734Y18680802D01*
X32886591Y18395088D02*
X32791353Y18347468D01*
X32791353Y18347468D02*
X32600877Y18347468D01*
X32600877Y18347468D02*
X32505639Y18395088D01*
X32505639Y18395088D02*
X32458020Y18490326D01*
X32458020Y18490326D02*
X32458020Y18537945D01*
X32458020Y18537945D02*
X32505639Y18633183D01*
X32505639Y18633183D02*
X32600877Y18680802D01*
X32600877Y18680802D02*
X32743734Y18680802D01*
X32743734Y18680802D02*
X32838972Y18728421D01*
X32838972Y18728421D02*
X32886591Y18823659D01*
X32886591Y18823659D02*
X32886591Y18871278D01*
X32886591Y18871278D02*
X32838972Y18966516D01*
X32838972Y18966516D02*
X32743734Y19014135D01*
X32743734Y19014135D02*
X32600877Y19014135D01*
X32600877Y19014135D02*
X32505639Y18966516D01*
X31648496Y18395088D02*
X31743734Y18347468D01*
X31743734Y18347468D02*
X31934210Y18347468D01*
X31934210Y18347468D02*
X32029448Y18395088D01*
X32029448Y18395088D02*
X32077067Y18490326D01*
X32077067Y18490326D02*
X32077067Y18871278D01*
X32077067Y18871278D02*
X32029448Y18966516D01*
X32029448Y18966516D02*
X31934210Y19014135D01*
X31934210Y19014135D02*
X31743734Y19014135D01*
X31743734Y19014135D02*
X31648496Y18966516D01*
X31648496Y18966516D02*
X31600877Y18871278D01*
X31600877Y18871278D02*
X31600877Y18776040D01*
X31600877Y18776040D02*
X32077067Y18680802D01*
X31315162Y19014135D02*
X30934210Y19014135D01*
X31172305Y19347468D02*
X31172305Y18490326D01*
X31172305Y18490326D02*
X31124686Y18395088D01*
X31124686Y18395088D02*
X31029448Y18347468D01*
X31029448Y18347468D02*
X30934210Y18347468D01*
X34838972Y17737524D02*
X34267544Y17737524D01*
X34553258Y16737524D02*
X34553258Y17737524D01*
X33934210Y16737524D02*
X33934210Y17737524D01*
X33934210Y17737524D02*
X33696115Y17737524D01*
X33696115Y17737524D02*
X33553258Y17689905D01*
X33553258Y17689905D02*
X33458020Y17594667D01*
X33458020Y17594667D02*
X33410401Y17499429D01*
X33410401Y17499429D02*
X33362782Y17308953D01*
X33362782Y17308953D02*
X33362782Y17166096D01*
X33362782Y17166096D02*
X33410401Y16975620D01*
X33410401Y16975620D02*
X33458020Y16880382D01*
X33458020Y16880382D02*
X33553258Y16785144D01*
X33553258Y16785144D02*
X33696115Y16737524D01*
X33696115Y16737524D02*
X33934210Y16737524D01*
X32934210Y16737524D02*
X32934210Y17737524D01*
X34838972Y16127580D02*
X34267544Y16127580D01*
X34553258Y15127580D02*
X34553258Y16127580D01*
X33934210Y15127580D02*
X33934210Y16127580D01*
X33934210Y16127580D02*
X33600877Y15413295D01*
X33600877Y15413295D02*
X33267544Y16127580D01*
X33267544Y16127580D02*
X33267544Y15127580D01*
X32838972Y15175200D02*
X32696115Y15127580D01*
X32696115Y15127580D02*
X32458020Y15127580D01*
X32458020Y15127580D02*
X32362782Y15175200D01*
X32362782Y15175200D02*
X32315163Y15222819D01*
X32315163Y15222819D02*
X32267544Y15318057D01*
X32267544Y15318057D02*
X32267544Y15413295D01*
X32267544Y15413295D02*
X32315163Y15508533D01*
X32315163Y15508533D02*
X32362782Y15556152D01*
X32362782Y15556152D02*
X32458020Y15603771D01*
X32458020Y15603771D02*
X32648496Y15651390D01*
X32648496Y15651390D02*
X32743734Y15699009D01*
X32743734Y15699009D02*
X32791353Y15746628D01*
X32791353Y15746628D02*
X32838972Y15841866D01*
X32838972Y15841866D02*
X32838972Y15937104D01*
X32838972Y15937104D02*
X32791353Y16032342D01*
X32791353Y16032342D02*
X32743734Y16079961D01*
X32743734Y16079961D02*
X32648496Y16127580D01*
X32648496Y16127580D02*
X32410401Y16127580D01*
X32410401Y16127580D02*
X32267544Y16079961D01*
X43696115Y28007132D02*
X43696115Y29007132D01*
X42648497Y28102371D02*
X42696116Y28054752D01*
X42696116Y28054752D02*
X42838973Y28007132D01*
X42838973Y28007132D02*
X42934211Y28007132D01*
X42934211Y28007132D02*
X43077068Y28054752D01*
X43077068Y28054752D02*
X43172306Y28149990D01*
X43172306Y28149990D02*
X43219925Y28245228D01*
X43219925Y28245228D02*
X43267544Y28435704D01*
X43267544Y28435704D02*
X43267544Y28578561D01*
X43267544Y28578561D02*
X43219925Y28769037D01*
X43219925Y28769037D02*
X43172306Y28864275D01*
X43172306Y28864275D02*
X43077068Y28959513D01*
X43077068Y28959513D02*
X42934211Y29007132D01*
X42934211Y29007132D02*
X42838973Y29007132D01*
X42838973Y29007132D02*
X42696116Y28959513D01*
X42696116Y28959513D02*
X42648497Y28911894D01*
X42267544Y28054752D02*
X42124687Y28007132D01*
X42124687Y28007132D02*
X41886592Y28007132D01*
X41886592Y28007132D02*
X41791354Y28054752D01*
X41791354Y28054752D02*
X41743735Y28102371D01*
X41743735Y28102371D02*
X41696116Y28197609D01*
X41696116Y28197609D02*
X41696116Y28292847D01*
X41696116Y28292847D02*
X41743735Y28388085D01*
X41743735Y28388085D02*
X41791354Y28435704D01*
X41791354Y28435704D02*
X41886592Y28483323D01*
X41886592Y28483323D02*
X42077068Y28530942D01*
X42077068Y28530942D02*
X42172306Y28578561D01*
X42172306Y28578561D02*
X42219925Y28626180D01*
X42219925Y28626180D02*
X42267544Y28721418D01*
X42267544Y28721418D02*
X42267544Y28816656D01*
X42267544Y28816656D02*
X42219925Y28911894D01*
X42219925Y28911894D02*
X42172306Y28959513D01*
X42172306Y28959513D02*
X42077068Y29007132D01*
X42077068Y29007132D02*
X41838973Y29007132D01*
X41838973Y29007132D02*
X41696116Y28959513D01*
X41267544Y28007132D02*
X41267544Y29007132D01*
X41267544Y29007132D02*
X40886592Y29007132D01*
X40886592Y29007132D02*
X40791354Y28959513D01*
X40791354Y28959513D02*
X40743735Y28911894D01*
X40743735Y28911894D02*
X40696116Y28816656D01*
X40696116Y28816656D02*
X40696116Y28673799D01*
X40696116Y28673799D02*
X40743735Y28578561D01*
X40743735Y28578561D02*
X40791354Y28530942D01*
X40791354Y28530942D02*
X40886592Y28483323D01*
X40886592Y28483323D02*
X41267544Y28483323D01*
X43696115Y26397188D02*
X43696115Y27397188D01*
X43696115Y27397188D02*
X43362782Y26682903D01*
X43362782Y26682903D02*
X43029449Y27397188D01*
X43029449Y27397188D02*
X43029449Y26397188D01*
X41981830Y26492427D02*
X42029449Y26444808D01*
X42029449Y26444808D02*
X42172306Y26397188D01*
X42172306Y26397188D02*
X42267544Y26397188D01*
X42267544Y26397188D02*
X42410401Y26444808D01*
X42410401Y26444808D02*
X42505639Y26540046D01*
X42505639Y26540046D02*
X42553258Y26635284D01*
X42553258Y26635284D02*
X42600877Y26825760D01*
X42600877Y26825760D02*
X42600877Y26968617D01*
X42600877Y26968617D02*
X42553258Y27159093D01*
X42553258Y27159093D02*
X42505639Y27254331D01*
X42505639Y27254331D02*
X42410401Y27349569D01*
X42410401Y27349569D02*
X42267544Y27397188D01*
X42267544Y27397188D02*
X42172306Y27397188D01*
X42172306Y27397188D02*
X42029449Y27349569D01*
X42029449Y27349569D02*
X41981830Y27301950D01*
X41077068Y26397188D02*
X41553258Y26397188D01*
X41553258Y26397188D02*
X41553258Y27397188D01*
X40172306Y26397188D02*
X40505639Y26873379D01*
X40743734Y26397188D02*
X40743734Y27397188D01*
X40743734Y27397188D02*
X40362782Y27397188D01*
X40362782Y27397188D02*
X40267544Y27349569D01*
X40267544Y27349569D02*
X40219925Y27301950D01*
X40219925Y27301950D02*
X40172306Y27206712D01*
X40172306Y27206712D02*
X40172306Y27063855D01*
X40172306Y27063855D02*
X40219925Y26968617D01*
X40219925Y26968617D02*
X40267544Y26920998D01*
X40267544Y26920998D02*
X40362782Y26873379D01*
X40362782Y26873379D02*
X40743734Y26873379D01*
X39029449Y27444808D02*
X39886591Y26159093D01*
X38838972Y27397188D02*
X38505639Y26397188D01*
X38505639Y26397188D02*
X38172306Y27397188D01*
X37838972Y26397188D02*
X37838972Y27397188D01*
X37838972Y27397188D02*
X37458020Y27397188D01*
X37458020Y27397188D02*
X37362782Y27349569D01*
X37362782Y27349569D02*
X37315163Y27301950D01*
X37315163Y27301950D02*
X37267544Y27206712D01*
X37267544Y27206712D02*
X37267544Y27063855D01*
X37267544Y27063855D02*
X37315163Y26968617D01*
X37315163Y26968617D02*
X37362782Y26920998D01*
X37362782Y26920998D02*
X37458020Y26873379D01*
X37458020Y26873379D02*
X37838972Y26873379D01*
X36838972Y26397188D02*
X36838972Y27397188D01*
X36838972Y27397188D02*
X36458020Y27397188D01*
X36458020Y27397188D02*
X36362782Y27349569D01*
X36362782Y27349569D02*
X36315163Y27301950D01*
X36315163Y27301950D02*
X36267544Y27206712D01*
X36267544Y27206712D02*
X36267544Y27063855D01*
X36267544Y27063855D02*
X36315163Y26968617D01*
X36315163Y26968617D02*
X36362782Y26920998D01*
X36362782Y26920998D02*
X36458020Y26873379D01*
X36458020Y26873379D02*
X36838972Y26873379D01*
X43838972Y25787244D02*
X43505639Y24787244D01*
X43505639Y24787244D02*
X43172306Y25787244D01*
X42838972Y24787244D02*
X42838972Y25787244D01*
X42838972Y25787244D02*
X42600877Y25787244D01*
X42600877Y25787244D02*
X42458020Y25739625D01*
X42458020Y25739625D02*
X42362782Y25644387D01*
X42362782Y25644387D02*
X42315163Y25549149D01*
X42315163Y25549149D02*
X42267544Y25358673D01*
X42267544Y25358673D02*
X42267544Y25215816D01*
X42267544Y25215816D02*
X42315163Y25025340D01*
X42315163Y25025340D02*
X42362782Y24930102D01*
X42362782Y24930102D02*
X42458020Y24834864D01*
X42458020Y24834864D02*
X42600877Y24787244D01*
X42600877Y24787244D02*
X42838972Y24787244D01*
X41838972Y24787244D02*
X41838972Y25787244D01*
X41838972Y25787244D02*
X41600877Y25787244D01*
X41600877Y25787244D02*
X41458020Y25739625D01*
X41458020Y25739625D02*
X41362782Y25644387D01*
X41362782Y25644387D02*
X41315163Y25549149D01*
X41315163Y25549149D02*
X41267544Y25358673D01*
X41267544Y25358673D02*
X41267544Y25215816D01*
X41267544Y25215816D02*
X41315163Y25025340D01*
X41315163Y25025340D02*
X41362782Y24930102D01*
X41362782Y24930102D02*
X41458020Y24834864D01*
X41458020Y24834864D02*
X41600877Y24787244D01*
X41600877Y24787244D02*
X41838972Y24787244D01*
X43172306Y24129681D02*
X43267544Y24177300D01*
X43267544Y24177300D02*
X43410401Y24177300D01*
X43410401Y24177300D02*
X43553258Y24129681D01*
X43553258Y24129681D02*
X43648496Y24034443D01*
X43648496Y24034443D02*
X43696115Y23939205D01*
X43696115Y23939205D02*
X43743734Y23748729D01*
X43743734Y23748729D02*
X43743734Y23605872D01*
X43743734Y23605872D02*
X43696115Y23415396D01*
X43696115Y23415396D02*
X43648496Y23320158D01*
X43648496Y23320158D02*
X43553258Y23224920D01*
X43553258Y23224920D02*
X43410401Y23177300D01*
X43410401Y23177300D02*
X43315163Y23177300D01*
X43315163Y23177300D02*
X43172306Y23224920D01*
X43172306Y23224920D02*
X43124687Y23272539D01*
X43124687Y23272539D02*
X43124687Y23605872D01*
X43124687Y23605872D02*
X43315163Y23605872D01*
X42696115Y23177300D02*
X42696115Y24177300D01*
X42696115Y24177300D02*
X42124687Y23177300D01*
X42124687Y23177300D02*
X42124687Y24177300D01*
X41648496Y23177300D02*
X41648496Y24177300D01*
X41648496Y24177300D02*
X41410401Y24177300D01*
X41410401Y24177300D02*
X41267544Y24129681D01*
X41267544Y24129681D02*
X41172306Y24034443D01*
X41172306Y24034443D02*
X41124687Y23939205D01*
X41124687Y23939205D02*
X41077068Y23748729D01*
X41077068Y23748729D02*
X41077068Y23605872D01*
X41077068Y23605872D02*
X41124687Y23415396D01*
X41124687Y23415396D02*
X41172306Y23320158D01*
X41172306Y23320158D02*
X41267544Y23224920D01*
X41267544Y23224920D02*
X41410401Y23177300D01*
X41410401Y23177300D02*
X41648496Y23177300D01*
X43696115Y21567356D02*
X43696115Y22567356D01*
X43696115Y22567356D02*
X43458020Y22567356D01*
X43458020Y22567356D02*
X43315163Y22519737D01*
X43315163Y22519737D02*
X43219925Y22424499D01*
X43219925Y22424499D02*
X43172306Y22329261D01*
X43172306Y22329261D02*
X43124687Y22138785D01*
X43124687Y22138785D02*
X43124687Y21995928D01*
X43124687Y21995928D02*
X43172306Y21805452D01*
X43172306Y21805452D02*
X43219925Y21710214D01*
X43219925Y21710214D02*
X43315163Y21614976D01*
X43315163Y21614976D02*
X43458020Y21567356D01*
X43458020Y21567356D02*
X43696115Y21567356D01*
X42743734Y21853071D02*
X42267544Y21853071D01*
X42838972Y21567356D02*
X42505639Y22567356D01*
X42505639Y22567356D02*
X42172306Y21567356D01*
X41981829Y22567356D02*
X41410401Y22567356D01*
X41696115Y21567356D02*
X41696115Y22567356D01*
X43124687Y20052651D02*
X43172306Y20005032D01*
X43172306Y20005032D02*
X43315163Y19957412D01*
X43315163Y19957412D02*
X43410401Y19957412D01*
X43410401Y19957412D02*
X43553258Y20005032D01*
X43553258Y20005032D02*
X43648496Y20100270D01*
X43648496Y20100270D02*
X43696115Y20195508D01*
X43696115Y20195508D02*
X43743734Y20385984D01*
X43743734Y20385984D02*
X43743734Y20528841D01*
X43743734Y20528841D02*
X43696115Y20719317D01*
X43696115Y20719317D02*
X43648496Y20814555D01*
X43648496Y20814555D02*
X43553258Y20909793D01*
X43553258Y20909793D02*
X43410401Y20957412D01*
X43410401Y20957412D02*
X43315163Y20957412D01*
X43315163Y20957412D02*
X43172306Y20909793D01*
X43172306Y20909793D02*
X43124687Y20862174D01*
X42219925Y19957412D02*
X42696115Y19957412D01*
X42696115Y19957412D02*
X42696115Y20957412D01*
X41886591Y19957412D02*
X41886591Y20957412D01*
X41315163Y19957412D02*
X41743734Y20528841D01*
X41315163Y20957412D02*
X41886591Y20385984D01*
X43696115Y18442707D02*
X43648496Y18395088D01*
X43648496Y18395088D02*
X43696115Y18347468D01*
X43696115Y18347468D02*
X43743734Y18395088D01*
X43743734Y18395088D02*
X43696115Y18442707D01*
X43696115Y18442707D02*
X43696115Y18347468D01*
X43696115Y16832763D02*
X43648496Y16785144D01*
X43648496Y16785144D02*
X43696115Y16737524D01*
X43696115Y16737524D02*
X43743734Y16785144D01*
X43743734Y16785144D02*
X43696115Y16832763D01*
X43696115Y16832763D02*
X43696115Y16737524D01*
X43696115Y15222819D02*
X43648496Y15175200D01*
X43648496Y15175200D02*
X43696115Y15127580D01*
X43696115Y15127580D02*
X43743734Y15175200D01*
X43743734Y15175200D02*
X43696115Y15222819D01*
X43696115Y15222819D02*
X43696115Y15127580D01*
X52196115Y28007132D02*
X52196115Y29007132D01*
X52196115Y29007132D02*
X51815163Y29007132D01*
X51815163Y29007132D02*
X51719925Y28959513D01*
X51719925Y28959513D02*
X51672306Y28911894D01*
X51672306Y28911894D02*
X51624687Y28816656D01*
X51624687Y28816656D02*
X51624687Y28673799D01*
X51624687Y28673799D02*
X51672306Y28578561D01*
X51672306Y28578561D02*
X51719925Y28530942D01*
X51719925Y28530942D02*
X51815163Y28483323D01*
X51815163Y28483323D02*
X52196115Y28483323D01*
X51196115Y28007132D02*
X51196115Y28673799D01*
X51196115Y29007132D02*
X51243734Y28959513D01*
X51243734Y28959513D02*
X51196115Y28911894D01*
X51196115Y28911894D02*
X51148496Y28959513D01*
X51148496Y28959513D02*
X51196115Y29007132D01*
X51196115Y29007132D02*
X51196115Y28911894D01*
X50719925Y28673799D02*
X50719925Y28007132D01*
X50719925Y28578561D02*
X50672306Y28626180D01*
X50672306Y28626180D02*
X50577068Y28673799D01*
X50577068Y28673799D02*
X50434211Y28673799D01*
X50434211Y28673799D02*
X50338973Y28626180D01*
X50338973Y28626180D02*
X50291354Y28530942D01*
X50291354Y28530942D02*
X50291354Y28007132D01*
X49100878Y29054752D02*
X49958020Y27769037D01*
X48767544Y28007132D02*
X48767544Y29007132D01*
X48767544Y29007132D02*
X48196116Y28007132D01*
X48196116Y28007132D02*
X48196116Y29007132D01*
X47291354Y28007132D02*
X47291354Y28530942D01*
X47291354Y28530942D02*
X47338973Y28626180D01*
X47338973Y28626180D02*
X47434211Y28673799D01*
X47434211Y28673799D02*
X47624687Y28673799D01*
X47624687Y28673799D02*
X47719925Y28626180D01*
X47291354Y28054752D02*
X47386592Y28007132D01*
X47386592Y28007132D02*
X47624687Y28007132D01*
X47624687Y28007132D02*
X47719925Y28054752D01*
X47719925Y28054752D02*
X47767544Y28149990D01*
X47767544Y28149990D02*
X47767544Y28245228D01*
X47767544Y28245228D02*
X47719925Y28340466D01*
X47719925Y28340466D02*
X47624687Y28388085D01*
X47624687Y28388085D02*
X47386592Y28388085D01*
X47386592Y28388085D02*
X47291354Y28435704D01*
X46815163Y28007132D02*
X46815163Y28673799D01*
X46815163Y28578561D02*
X46767544Y28626180D01*
X46767544Y28626180D02*
X46672306Y28673799D01*
X46672306Y28673799D02*
X46529449Y28673799D01*
X46529449Y28673799D02*
X46434211Y28626180D01*
X46434211Y28626180D02*
X46386592Y28530942D01*
X46386592Y28530942D02*
X46386592Y28007132D01*
X46386592Y28530942D02*
X46338973Y28626180D01*
X46338973Y28626180D02*
X46243735Y28673799D01*
X46243735Y28673799D02*
X46100878Y28673799D01*
X46100878Y28673799D02*
X46005639Y28626180D01*
X46005639Y28626180D02*
X45958020Y28530942D01*
X45958020Y28530942D02*
X45958020Y28007132D01*
X45100878Y28054752D02*
X45196116Y28007132D01*
X45196116Y28007132D02*
X45386592Y28007132D01*
X45386592Y28007132D02*
X45481830Y28054752D01*
X45481830Y28054752D02*
X45529449Y28149990D01*
X45529449Y28149990D02*
X45529449Y28530942D01*
X45529449Y28530942D02*
X45481830Y28626180D01*
X45481830Y28626180D02*
X45386592Y28673799D01*
X45386592Y28673799D02*
X45196116Y28673799D01*
X45196116Y28673799D02*
X45100878Y28626180D01*
X45100878Y28626180D02*
X45053259Y28530942D01*
X45053259Y28530942D02*
X45053259Y28435704D01*
X45053259Y28435704D02*
X45529449Y28340466D01*
X51672306Y26397188D02*
X52243734Y26397188D01*
X51958020Y26397188D02*
X51958020Y27397188D01*
X51958020Y27397188D02*
X52053258Y27254331D01*
X52053258Y27254331D02*
X52148496Y27159093D01*
X52148496Y27159093D02*
X52243734Y27111474D01*
X50624686Y27397188D02*
X50053258Y27397188D01*
X50338972Y26397188D02*
X50338972Y27397188D01*
X49862781Y27397188D02*
X49529448Y26397188D01*
X49529448Y26397188D02*
X49196115Y27397188D01*
X48862781Y26397188D02*
X48862781Y27397188D01*
X48862781Y27397188D02*
X48481829Y27397188D01*
X48481829Y27397188D02*
X48386591Y27349569D01*
X48386591Y27349569D02*
X48338972Y27301950D01*
X48338972Y27301950D02*
X48291353Y27206712D01*
X48291353Y27206712D02*
X48291353Y27063855D01*
X48291353Y27063855D02*
X48338972Y26968617D01*
X48338972Y26968617D02*
X48386591Y26920998D01*
X48386591Y26920998D02*
X48481829Y26873379D01*
X48481829Y26873379D02*
X48862781Y26873379D01*
X47862781Y26397188D02*
X47862781Y27397188D01*
X47862781Y27397188D02*
X47481829Y27397188D01*
X47481829Y27397188D02*
X47386591Y27349569D01*
X47386591Y27349569D02*
X47338972Y27301950D01*
X47338972Y27301950D02*
X47291353Y27206712D01*
X47291353Y27206712D02*
X47291353Y27063855D01*
X47291353Y27063855D02*
X47338972Y26968617D01*
X47338972Y26968617D02*
X47386591Y26920998D01*
X47386591Y26920998D02*
X47481829Y26873379D01*
X47481829Y26873379D02*
X47862781Y26873379D01*
X52243734Y25692006D02*
X52196115Y25739625D01*
X52196115Y25739625D02*
X52100877Y25787244D01*
X52100877Y25787244D02*
X51862782Y25787244D01*
X51862782Y25787244D02*
X51767544Y25739625D01*
X51767544Y25739625D02*
X51719925Y25692006D01*
X51719925Y25692006D02*
X51672306Y25596768D01*
X51672306Y25596768D02*
X51672306Y25501530D01*
X51672306Y25501530D02*
X51719925Y25358673D01*
X51719925Y25358673D02*
X52291353Y24787244D01*
X52291353Y24787244D02*
X51672306Y24787244D01*
X50624686Y25787244D02*
X50053258Y25787244D01*
X50338972Y24787244D02*
X50338972Y25787244D01*
X49862781Y25787244D02*
X49529448Y24787244D01*
X49529448Y24787244D02*
X49196115Y25787244D01*
X48862781Y24787244D02*
X48862781Y25787244D01*
X48862781Y25787244D02*
X48624686Y25787244D01*
X48624686Y25787244D02*
X48481829Y25739625D01*
X48481829Y25739625D02*
X48386591Y25644387D01*
X48386591Y25644387D02*
X48338972Y25549149D01*
X48338972Y25549149D02*
X48291353Y25358673D01*
X48291353Y25358673D02*
X48291353Y25215816D01*
X48291353Y25215816D02*
X48338972Y25025340D01*
X48338972Y25025340D02*
X48386591Y24930102D01*
X48386591Y24930102D02*
X48481829Y24834864D01*
X48481829Y24834864D02*
X48624686Y24787244D01*
X48624686Y24787244D02*
X48862781Y24787244D01*
X47862781Y24787244D02*
X47862781Y25787244D01*
X47862781Y25787244D02*
X47624686Y25787244D01*
X47624686Y25787244D02*
X47481829Y25739625D01*
X47481829Y25739625D02*
X47386591Y25644387D01*
X47386591Y25644387D02*
X47338972Y25549149D01*
X47338972Y25549149D02*
X47291353Y25358673D01*
X47291353Y25358673D02*
X47291353Y25215816D01*
X47291353Y25215816D02*
X47338972Y25025340D01*
X47338972Y25025340D02*
X47386591Y24930102D01*
X47386591Y24930102D02*
X47481829Y24834864D01*
X47481829Y24834864D02*
X47624686Y24787244D01*
X47624686Y24787244D02*
X47862781Y24787244D01*
X52291353Y24177300D02*
X51672306Y24177300D01*
X51672306Y24177300D02*
X52005639Y23796348D01*
X52005639Y23796348D02*
X51862782Y23796348D01*
X51862782Y23796348D02*
X51767544Y23748729D01*
X51767544Y23748729D02*
X51719925Y23701110D01*
X51719925Y23701110D02*
X51672306Y23605872D01*
X51672306Y23605872D02*
X51672306Y23367777D01*
X51672306Y23367777D02*
X51719925Y23272539D01*
X51719925Y23272539D02*
X51767544Y23224920D01*
X51767544Y23224920D02*
X51862782Y23177300D01*
X51862782Y23177300D02*
X52148496Y23177300D01*
X52148496Y23177300D02*
X52243734Y23224920D01*
X52243734Y23224920D02*
X52291353Y23272539D01*
X49958020Y24129681D02*
X50053258Y24177300D01*
X50053258Y24177300D02*
X50196115Y24177300D01*
X50196115Y24177300D02*
X50338972Y24129681D01*
X50338972Y24129681D02*
X50434210Y24034443D01*
X50434210Y24034443D02*
X50481829Y23939205D01*
X50481829Y23939205D02*
X50529448Y23748729D01*
X50529448Y23748729D02*
X50529448Y23605872D01*
X50529448Y23605872D02*
X50481829Y23415396D01*
X50481829Y23415396D02*
X50434210Y23320158D01*
X50434210Y23320158D02*
X50338972Y23224920D01*
X50338972Y23224920D02*
X50196115Y23177300D01*
X50196115Y23177300D02*
X50100877Y23177300D01*
X50100877Y23177300D02*
X49958020Y23224920D01*
X49958020Y23224920D02*
X49910401Y23272539D01*
X49910401Y23272539D02*
X49910401Y23605872D01*
X49910401Y23605872D02*
X50100877Y23605872D01*
X49481829Y23177300D02*
X49481829Y24177300D01*
X49481829Y24177300D02*
X48910401Y23177300D01*
X48910401Y23177300D02*
X48910401Y24177300D01*
X48434210Y23177300D02*
X48434210Y24177300D01*
X48434210Y24177300D02*
X48196115Y24177300D01*
X48196115Y24177300D02*
X48053258Y24129681D01*
X48053258Y24129681D02*
X47958020Y24034443D01*
X47958020Y24034443D02*
X47910401Y23939205D01*
X47910401Y23939205D02*
X47862782Y23748729D01*
X47862782Y23748729D02*
X47862782Y23605872D01*
X47862782Y23605872D02*
X47910401Y23415396D01*
X47910401Y23415396D02*
X47958020Y23320158D01*
X47958020Y23320158D02*
X48053258Y23224920D01*
X48053258Y23224920D02*
X48196115Y23177300D01*
X48196115Y23177300D02*
X48434210Y23177300D01*
X51767544Y22234023D02*
X51767544Y21567356D01*
X52005639Y22614976D02*
X52243734Y21900690D01*
X52243734Y21900690D02*
X51624687Y21900690D01*
X50481829Y21567356D02*
X50481829Y22567356D01*
X50481829Y22567356D02*
X50100877Y22567356D01*
X50100877Y22567356D02*
X50005639Y22519737D01*
X50005639Y22519737D02*
X49958020Y22472118D01*
X49958020Y22472118D02*
X49910401Y22376880D01*
X49910401Y22376880D02*
X49910401Y22234023D01*
X49910401Y22234023D02*
X49958020Y22138785D01*
X49958020Y22138785D02*
X50005639Y22091166D01*
X50005639Y22091166D02*
X50100877Y22043547D01*
X50100877Y22043547D02*
X50481829Y22043547D01*
X48958020Y22519737D02*
X49053258Y22567356D01*
X49053258Y22567356D02*
X49196115Y22567356D01*
X49196115Y22567356D02*
X49338972Y22519737D01*
X49338972Y22519737D02*
X49434210Y22424499D01*
X49434210Y22424499D02*
X49481829Y22329261D01*
X49481829Y22329261D02*
X49529448Y22138785D01*
X49529448Y22138785D02*
X49529448Y21995928D01*
X49529448Y21995928D02*
X49481829Y21805452D01*
X49481829Y21805452D02*
X49434210Y21710214D01*
X49434210Y21710214D02*
X49338972Y21614976D01*
X49338972Y21614976D02*
X49196115Y21567356D01*
X49196115Y21567356D02*
X49100877Y21567356D01*
X49100877Y21567356D02*
X48958020Y21614976D01*
X48958020Y21614976D02*
X48910401Y21662595D01*
X48910401Y21662595D02*
X48910401Y21995928D01*
X48910401Y21995928D02*
X49100877Y21995928D01*
X48481829Y21567356D02*
X48481829Y22567356D01*
X48481829Y22567356D02*
X48243734Y22567356D01*
X48243734Y22567356D02*
X48100877Y22519737D01*
X48100877Y22519737D02*
X48005639Y22424499D01*
X48005639Y22424499D02*
X47958020Y22329261D01*
X47958020Y22329261D02*
X47910401Y22138785D01*
X47910401Y22138785D02*
X47910401Y21995928D01*
X47910401Y21995928D02*
X47958020Y21805452D01*
X47958020Y21805452D02*
X48005639Y21710214D01*
X48005639Y21710214D02*
X48100877Y21614976D01*
X48100877Y21614976D02*
X48243734Y21567356D01*
X48243734Y21567356D02*
X48481829Y21567356D01*
X51719925Y20957412D02*
X52196115Y20957412D01*
X52196115Y20957412D02*
X52243734Y20481222D01*
X52243734Y20481222D02*
X52196115Y20528841D01*
X52196115Y20528841D02*
X52100877Y20576460D01*
X52100877Y20576460D02*
X51862782Y20576460D01*
X51862782Y20576460D02*
X51767544Y20528841D01*
X51767544Y20528841D02*
X51719925Y20481222D01*
X51719925Y20481222D02*
X51672306Y20385984D01*
X51672306Y20385984D02*
X51672306Y20147889D01*
X51672306Y20147889D02*
X51719925Y20052651D01*
X51719925Y20052651D02*
X51767544Y20005032D01*
X51767544Y20005032D02*
X51862782Y19957412D01*
X51862782Y19957412D02*
X52100877Y19957412D01*
X52100877Y19957412D02*
X52196115Y20005032D01*
X52196115Y20005032D02*
X52243734Y20052651D01*
X50481829Y19957412D02*
X50481829Y20957412D01*
X50481829Y20957412D02*
X50100877Y20957412D01*
X50100877Y20957412D02*
X50005639Y20909793D01*
X50005639Y20909793D02*
X49958020Y20862174D01*
X49958020Y20862174D02*
X49910401Y20766936D01*
X49910401Y20766936D02*
X49910401Y20624079D01*
X49910401Y20624079D02*
X49958020Y20528841D01*
X49958020Y20528841D02*
X50005639Y20481222D01*
X50005639Y20481222D02*
X50100877Y20433603D01*
X50100877Y20433603D02*
X50481829Y20433603D01*
X48958020Y20909793D02*
X49053258Y20957412D01*
X49053258Y20957412D02*
X49196115Y20957412D01*
X49196115Y20957412D02*
X49338972Y20909793D01*
X49338972Y20909793D02*
X49434210Y20814555D01*
X49434210Y20814555D02*
X49481829Y20719317D01*
X49481829Y20719317D02*
X49529448Y20528841D01*
X49529448Y20528841D02*
X49529448Y20385984D01*
X49529448Y20385984D02*
X49481829Y20195508D01*
X49481829Y20195508D02*
X49434210Y20100270D01*
X49434210Y20100270D02*
X49338972Y20005032D01*
X49338972Y20005032D02*
X49196115Y19957412D01*
X49196115Y19957412D02*
X49100877Y19957412D01*
X49100877Y19957412D02*
X48958020Y20005032D01*
X48958020Y20005032D02*
X48910401Y20052651D01*
X48910401Y20052651D02*
X48910401Y20385984D01*
X48910401Y20385984D02*
X49100877Y20385984D01*
X47910401Y20052651D02*
X47958020Y20005032D01*
X47958020Y20005032D02*
X48100877Y19957412D01*
X48100877Y19957412D02*
X48196115Y19957412D01*
X48196115Y19957412D02*
X48338972Y20005032D01*
X48338972Y20005032D02*
X48434210Y20100270D01*
X48434210Y20100270D02*
X48481829Y20195508D01*
X48481829Y20195508D02*
X48529448Y20385984D01*
X48529448Y20385984D02*
X48529448Y20528841D01*
X48529448Y20528841D02*
X48481829Y20719317D01*
X48481829Y20719317D02*
X48434210Y20814555D01*
X48434210Y20814555D02*
X48338972Y20909793D01*
X48338972Y20909793D02*
X48196115Y20957412D01*
X48196115Y20957412D02*
X48100877Y20957412D01*
X48100877Y20957412D02*
X47958020Y20909793D01*
X47958020Y20909793D02*
X47910401Y20862174D01*
X51767544Y19347468D02*
X51958020Y19347468D01*
X51958020Y19347468D02*
X52053258Y19299849D01*
X52053258Y19299849D02*
X52100877Y19252230D01*
X52100877Y19252230D02*
X52196115Y19109373D01*
X52196115Y19109373D02*
X52243734Y18918897D01*
X52243734Y18918897D02*
X52243734Y18537945D01*
X52243734Y18537945D02*
X52196115Y18442707D01*
X52196115Y18442707D02*
X52148496Y18395088D01*
X52148496Y18395088D02*
X52053258Y18347468D01*
X52053258Y18347468D02*
X51862782Y18347468D01*
X51862782Y18347468D02*
X51767544Y18395088D01*
X51767544Y18395088D02*
X51719925Y18442707D01*
X51719925Y18442707D02*
X51672306Y18537945D01*
X51672306Y18537945D02*
X51672306Y18776040D01*
X51672306Y18776040D02*
X51719925Y18871278D01*
X51719925Y18871278D02*
X51767544Y18918897D01*
X51767544Y18918897D02*
X51862782Y18966516D01*
X51862782Y18966516D02*
X52053258Y18966516D01*
X52053258Y18966516D02*
X52148496Y18918897D01*
X52148496Y18918897D02*
X52196115Y18871278D01*
X52196115Y18871278D02*
X52243734Y18776040D01*
X50624686Y19347468D02*
X50053258Y19347468D01*
X50338972Y18347468D02*
X50338972Y19347468D01*
X49767543Y18633183D02*
X49291353Y18633183D01*
X49862781Y18347468D02*
X49529448Y19347468D01*
X49529448Y19347468D02*
X49196115Y18347468D01*
X48862781Y19347468D02*
X48862781Y18537945D01*
X48862781Y18537945D02*
X48815162Y18442707D01*
X48815162Y18442707D02*
X48767543Y18395088D01*
X48767543Y18395088D02*
X48672305Y18347468D01*
X48672305Y18347468D02*
X48481829Y18347468D01*
X48481829Y18347468D02*
X48386591Y18395088D01*
X48386591Y18395088D02*
X48338972Y18442707D01*
X48338972Y18442707D02*
X48291353Y18537945D01*
X48291353Y18537945D02*
X48291353Y19347468D01*
X47910400Y19347468D02*
X47243734Y18347468D01*
X47243734Y19347468D02*
X47910400Y18347468D01*
X52291353Y17737524D02*
X51624687Y17737524D01*
X51624687Y17737524D02*
X52053258Y16737524D01*
X50624686Y17737524D02*
X50053258Y17737524D01*
X50338972Y16737524D02*
X50338972Y17737524D01*
X49862781Y17737524D02*
X49291353Y17737524D01*
X49577067Y16737524D02*
X49577067Y17737524D01*
X48958019Y16737524D02*
X48958019Y17737524D01*
X48958019Y17737524D02*
X48719924Y17737524D01*
X48719924Y17737524D02*
X48577067Y17689905D01*
X48577067Y17689905D02*
X48481829Y17594667D01*
X48481829Y17594667D02*
X48434210Y17499429D01*
X48434210Y17499429D02*
X48386591Y17308953D01*
X48386591Y17308953D02*
X48386591Y17166096D01*
X48386591Y17166096D02*
X48434210Y16975620D01*
X48434210Y16975620D02*
X48481829Y16880382D01*
X48481829Y16880382D02*
X48577067Y16785144D01*
X48577067Y16785144D02*
X48719924Y16737524D01*
X48719924Y16737524D02*
X48958019Y16737524D01*
X47958019Y16737524D02*
X47958019Y17737524D01*
X52053258Y15699009D02*
X52148496Y15746628D01*
X52148496Y15746628D02*
X52196115Y15794247D01*
X52196115Y15794247D02*
X52243734Y15889485D01*
X52243734Y15889485D02*
X52243734Y15937104D01*
X52243734Y15937104D02*
X52196115Y16032342D01*
X52196115Y16032342D02*
X52148496Y16079961D01*
X52148496Y16079961D02*
X52053258Y16127580D01*
X52053258Y16127580D02*
X51862782Y16127580D01*
X51862782Y16127580D02*
X51767544Y16079961D01*
X51767544Y16079961D02*
X51719925Y16032342D01*
X51719925Y16032342D02*
X51672306Y15937104D01*
X51672306Y15937104D02*
X51672306Y15889485D01*
X51672306Y15889485D02*
X51719925Y15794247D01*
X51719925Y15794247D02*
X51767544Y15746628D01*
X51767544Y15746628D02*
X51862782Y15699009D01*
X51862782Y15699009D02*
X52053258Y15699009D01*
X52053258Y15699009D02*
X52148496Y15651390D01*
X52148496Y15651390D02*
X52196115Y15603771D01*
X52196115Y15603771D02*
X52243734Y15508533D01*
X52243734Y15508533D02*
X52243734Y15318057D01*
X52243734Y15318057D02*
X52196115Y15222819D01*
X52196115Y15222819D02*
X52148496Y15175200D01*
X52148496Y15175200D02*
X52053258Y15127580D01*
X52053258Y15127580D02*
X51862782Y15127580D01*
X51862782Y15127580D02*
X51767544Y15175200D01*
X51767544Y15175200D02*
X51719925Y15222819D01*
X51719925Y15222819D02*
X51672306Y15318057D01*
X51672306Y15318057D02*
X51672306Y15508533D01*
X51672306Y15508533D02*
X51719925Y15603771D01*
X51719925Y15603771D02*
X51767544Y15651390D01*
X51767544Y15651390D02*
X51862782Y15699009D01*
X50624686Y16127580D02*
X50053258Y16127580D01*
X50338972Y15127580D02*
X50338972Y16127580D01*
X49862781Y16127580D02*
X49291353Y16127580D01*
X49577067Y15127580D02*
X49577067Y16127580D01*
X48958019Y15127580D02*
X48958019Y16127580D01*
X48958019Y16127580D02*
X48624686Y15413295D01*
X48624686Y15413295D02*
X48291353Y16127580D01*
X48291353Y16127580D02*
X48291353Y15127580D01*
X47862781Y15175200D02*
X47719924Y15127580D01*
X47719924Y15127580D02*
X47481829Y15127580D01*
X47481829Y15127580D02*
X47386591Y15175200D01*
X47386591Y15175200D02*
X47338972Y15222819D01*
X47338972Y15222819D02*
X47291353Y15318057D01*
X47291353Y15318057D02*
X47291353Y15413295D01*
X47291353Y15413295D02*
X47338972Y15508533D01*
X47338972Y15508533D02*
X47386591Y15556152D01*
X47386591Y15556152D02*
X47481829Y15603771D01*
X47481829Y15603771D02*
X47672305Y15651390D01*
X47672305Y15651390D02*
X47767543Y15699009D01*
X47767543Y15699009D02*
X47815162Y15746628D01*
X47815162Y15746628D02*
X47862781Y15841866D01*
X47862781Y15841866D02*
X47862781Y15937104D01*
X47862781Y15937104D02*
X47815162Y16032342D01*
X47815162Y16032342D02*
X47767543Y16079961D01*
X47767543Y16079961D02*
X47672305Y16127580D01*
X47672305Y16127580D02*
X47434210Y16127580D01*
X47434210Y16127580D02*
X47291353Y16079961D01*
D11*
X0Y99000000D02*
X129000000Y99000000D01*
X129000000Y0D01*
X0Y0D01*
X0Y99000000D01*
M02*
